<?xml version="1.0" encoding="UTF-8"?>
<svg xmlns="http://www.w3.org/2000/svg" width="128" height="92" viewBox="0 0 128 92" fill="none">
  <g clip-path="url(#clip0_1408_10216)">
    <path d="M0 40.3125V41.6279H0.197565C0.631652 41.6279 1.43861 41.6226 2.49043 41.6172C4.37148 41.6064 7.19583 41.593 10.0285 41.593V63.1646H11.7482V41.558C14.5113 41.558 17.177 41.5445 19.1388 41.5338C20.2407 41.5284 21.095 41.523 21.5819 41.523H21.7795V40.3475L0.200348 40.3125H0.00278261H0Z" fill="#333333"></path>
    <path d="M39.0149 54.0533C41.7752 52.4877 43.2305 50.0586 43.2305 47.0134C43.2305 45.3564 42.4876 43.7289 41.1909 42.5426C39.5936 41.0845 37.209 40.3125 34.2956 40.3125H26.3262V63.1646H28.0097V49.9698C35.4893 51.1911 40.2698 55.6943 41.842 63.0112L41.8754 63.1619H43.9011L43.8371 62.9251C42.8827 59.3689 41.2604 56.3829 39.0176 54.0506L39.0149 54.0533ZM41.906 47.0161C41.9394 49.3645 40.4646 51.6753 38.0465 53.0795C35.417 50.7499 32.0417 49.1709 28.0097 48.38V41.6602C28.5189 41.6602 29.0225 41.6522 29.5512 41.6468C30.8368 41.6306 32.2949 41.6145 34.329 41.6602C38.6142 41.7275 41.8726 44.0275 41.9088 47.0134L41.906 47.0161Z" fill="#333333"></path>
    <path d="M51.828 40.3125H50.1445V63.1646H51.828V40.3125Z" fill="#333333"></path>
    <path d="M69.0592 40.3125H67.4064L56.9883 63.1646H58.5994L61.2095 57.346C63.6387 55.5355 65.4975 54.5187 67.2283 54.0479C69.2151 53.4938 71.2853 53.362 73.3778 53.6579L77.6491 63.1646H79.5135L69.1121 40.4255L69.0592 40.3125ZM72.7712 52.2644C70.8596 52.1084 68.9229 52.294 67.014 52.8213C65.5643 53.214 64.0116 54.0076 62.1667 55.3015L68.141 41.9857L72.7712 52.2644Z" fill="#333333"></path>
    <path d="M91.8546 40.3125C90.7276 40.3125 85.0928 40.3125 84.7617 40.3475H83.6348V63.1323L91.8546 63.1672C98.2824 63.1672 103.514 58.0185 103.514 51.6888C103.514 45.359 98.2852 40.3152 91.8546 40.3152V40.3125ZM91.8908 61.7119C91.6069 61.7119 87.0407 61.6796 85.3516 61.6474V41.8324C87.0852 41.8001 91.5596 41.8055 91.8351 41.8351C94.9544 42.1229 97.2167 43.0537 98.9502 44.7565C100.909 46.6853 101.992 49.2543 101.997 51.9954C102.003 54.6693 100.931 57.2222 99.0616 58.9976C97.2167 60.7489 94.6706 61.7146 91.8935 61.7146L91.8908 61.7119Z" fill="#333333"></path>
    <path d="M117.606 40.4255L117.553 40.3125H115.901L105.482 63.1646H107.094L109.704 57.346C112.136 55.5355 113.992 54.5187 115.722 54.0479C117.709 53.4938 119.779 53.362 121.872 53.6579L126.143 63.1646H128.008L117.606 40.4255ZM121.268 52.2644C119.354 52.1084 117.42 52.294 115.511 52.8213C114.061 53.214 112.509 54.0076 110.664 55.3015L116.638 41.9857L121.268 52.2644Z" fill="#333333"></path>
    <path d="M72.6943 20.2027C73.3733 23.0568 72.5413 26.102 70.3263 28.2406C69.5249 29.0153 68.6011 29.5937 67.6216 30.0106L66.7812 31.6354C68.4146 31.1942 69.959 30.3684 71.2418 29.1283C74.1273 26.3387 74.9733 22.2121 73.5291 18.5859L72.6915 20.2027H72.6943Z" fill="#333333"></path>
    <path d="M71.2434 3.6751C69.9606 2.43499 68.4163 1.60645 66.7829 1.16797L67.6232 2.79276C68.6027 3.20972 69.5265 3.7854 70.3279 4.56282C72.5401 6.70411 73.3721 9.74657 72.6959 12.6007C72.5401 13.2598 72.3286 13.9135 72.0031 14.5403L71.7638 15.0029L71.0403 16.4045L69.9523 18.5054L64.6013 28.8487L64.0059 30L63.4104 28.8487L58.0594 18.5054L57.3359 19.9069L61.8772 28.6846L62.9206 30.6994L63.5968 32.0041L64.0086 32.8031L64.4205 32.0041L65.0966 30.6994L66.1401 28.6846L70.6813 19.9042L71.7693 17.8033L72.4928 16.4018L73.1662 15.0998C73.3165 14.8119 73.4194 14.5134 73.5363 14.2174C74.9805 10.5939 74.1345 6.46739 71.249 3.6751H71.2434Z" fill="#333333"></path>
    <path d="M70.675 12.8988L66.1365 4.12117L65.093 2.10363L64.4169 0.798947L64.005 0L63.5932 0.798947L62.917 2.10363L61.8736 4.12117L57.3351 12.8961L56.2471 14.9971L55.5236 16.3986L54.8503 17.7006C54.7 17.9884 54.5998 18.287 54.4802 18.5829C53.036 22.2064 53.8819 26.3357 56.7675 29.1253C58.0503 30.3654 59.5946 31.1912 61.228 31.6324L60.3876 30.0076C59.4082 29.5906 58.4843 29.0123 57.683 28.2375C55.468 26.0962 54.636 23.0538 55.3149 20.1996C55.4708 19.5406 55.685 18.8869 56.0078 18.2601L56.2471 17.7974L56.9706 16.3959L58.0586 14.295L63.4096 3.95169L64.005 2.80035L64.6005 3.95169L69.3643 13.1651H64.8899V14.295H69.9487L70.675 12.8934V12.8988Z" fill="#333333"></path>
    <path d="M83.8435 73.0695C83.8268 72.4024 83.7823 72.1818 83.1952 72.1469C83.1423 72.1549 83.134 72.0446 83.1952 72.0446C83.4039 72.0527 83.7545 72.0608 84.0355 72.0608C84.3778 72.0608 84.8842 72.0258 85.2682 72.0446C86.2922 72.0769 86.7653 72.5853 86.7653 73.204C86.7653 73.8981 86.2588 74.2774 85.7941 74.4468C86.7987 74.5894 87.2801 75.1651 87.2912 75.8672C87.2995 76.8571 86.4258 77.3898 85.4185 77.3898C85.015 77.3898 84.3527 77.3145 84.0884 77.3145C83.9576 77.3145 83.5291 77.3306 83.2675 77.3387C83.198 77.3387 83.2147 77.2364 83.2675 77.2364C83.774 77.2015 83.8185 77.0347 83.8435 76.3245C83.8602 75.9183 83.8602 75.157 83.8602 74.8692C83.8602 74.2693 83.8602 73.6856 83.8435 73.0668V73.0695ZM84.926 72.2652C84.5837 72.2491 84.5754 72.2652 84.5754 72.467C84.5754 72.7387 84.5837 73.9626 84.5837 74.4361C84.6366 74.4442 84.9343 74.4442 84.9955 74.4442C85.2321 74.4442 85.4157 74.428 85.5214 74.385C85.8275 74.2585 86.0195 73.9788 86.0279 73.5134C86.0446 72.7521 85.6856 72.2948 84.926 72.2625V72.2652ZM84.9788 74.6755H84.5865C84.5865 75.0736 84.5781 75.6466 84.5781 76.0797C84.5781 76.3164 84.5865 76.6043 84.5948 76.7549C84.6032 76.9082 84.6394 76.9674 84.7534 77.0266C84.9204 77.11 85.1374 77.1611 85.4435 77.1611C86.0807 77.1611 86.5204 76.763 86.5371 76.0716C86.5538 75.2081 85.95 74.6755 84.9788 74.6755Z" fill="#333333"></path>
    <path d="M91.2783 72.0796C91.3312 71.9693 91.3479 71.9531 91.3841 71.9531C91.4091 71.9531 91.4286 71.9693 91.4703 72.0796C91.6095 72.4615 92.0296 73.586 92.4943 74.7346C92.7559 75.3776 93.0286 76.0124 93.2902 76.6204C93.4905 77.0938 93.6408 77.188 94.0415 77.2364C94.1027 77.2364 94.111 77.3386 94.0415 77.3386C93.7103 77.3305 93.3319 77.3144 92.9646 77.3144C92.7559 77.3144 92.4053 77.3305 92.1938 77.3386C92.1242 77.3386 92.1326 77.2364 92.1938 77.2364C92.5249 77.2014 92.5973 77.1019 92.4637 76.728C92.3246 76.3298 92.1326 75.8322 91.9211 75.3076H90.2599C90.1291 75.6466 89.8842 76.2545 89.7535 76.7038C89.6143 77.1691 89.8397 77.2014 90.1291 77.2364C90.1903 77.2364 90.1987 77.3386 90.1291 77.3386C89.8481 77.3305 89.4724 77.3144 89.3082 77.3144C89.0717 77.3144 88.7935 77.3305 88.4957 77.3386C88.4178 77.3386 88.4345 77.2364 88.4957 77.2364C88.7155 77.2014 88.9604 77.1772 89.1942 76.7629C89.4557 76.2976 89.7535 75.5955 90.0428 74.9203C90.6105 73.6263 91.2505 72.1307 91.2755 72.0796H91.2783ZM91.1114 73.2309C91.0056 73.4676 90.8832 73.7393 90.7524 74.0594C90.6662 74.272 90.4102 74.9122 90.3601 75.0413C90.5437 75.0494 90.7524 75.0494 91.0335 75.0494C91.3562 75.0494 91.6902 75.0494 91.8293 75.0413C91.5677 74.3392 91.295 73.6721 91.1114 73.2309Z" fill="#333333"></path>
    <path d="M99.9716 72.2844C99.8937 72.2494 99.788 72.2333 99.6656 72.2333C99.1063 72.2333 98.5108 72.7229 98.0906 73.2905C97.6259 73.9173 97.0137 75.0336 97.0137 75.6739V76.4701C97.0137 77.2314 97.1445 77.1803 97.6259 77.2395C97.6955 77.2395 97.6955 77.3417 97.6259 77.3417C97.2419 77.3337 96.8551 77.3175 96.6631 77.3175C96.4711 77.3175 96.1038 77.3337 95.7087 77.3417C95.6391 77.3417 95.6475 77.2395 95.7087 77.2395C96.0843 77.1803 96.2513 77.1642 96.2513 76.4701V75.8541C96.2513 75.1951 95.884 74.2401 95.4471 73.5972C94.8878 72.7686 94.284 72.2952 93.708 72.279C93.5605 72.279 93.3574 72.3032 93.2711 72.3382C93.2182 72.3624 93.1932 72.2952 93.2461 72.2629C93.3852 72.1526 93.6217 72.002 94.1643 72.002C95.0743 72.002 95.7198 72.6287 96.14 73.2878C96.4822 73.8285 96.7271 74.4122 96.8829 75.039C96.9191 74.7351 97.1445 73.8796 97.74 73.086C98.3883 72.2064 98.9727 72.0208 99.4986 72.0208C99.6989 72.0208 99.9188 72.0719 100.025 72.2225C100.061 72.2737 100.008 72.3059 99.9716 72.2898V72.2844Z" fill="#333333"></path>
    <path d="M28.2911 72.2744C28.2994 72.7829 28.2911 74.2947 28.2911 74.8192C28.2911 75.2927 28.3078 76.097 28.3161 76.3337C28.3412 77.1192 28.4998 77.1865 29.0424 77.2457C29.1119 77.2457 29.1119 77.3398 29.0424 77.3398C28.7001 77.3317 28.2104 77.3156 27.9321 77.3156C27.7568 77.3156 27.2949 77.3317 27.1001 77.3398C27.0222 77.3398 27.0389 77.2457 27.1001 77.2457C27.3979 77.2107 27.537 77.1865 27.5537 76.4171C27.562 76.1293 27.562 75.1151 27.562 74.8273C27.562 74.1682 27.562 73.3989 27.5537 73.111C27.537 72.2986 27.4563 72.1991 26.9248 72.1399C26.8636 72.1399 26.8636 72.0458 26.9248 72.0458C27.1252 72.0539 27.5899 72.07 27.818 72.07C28.1603 72.07 28.5526 72.027 29.1119 72.0458C30.4337 72.0969 30.9234 72.8151 30.9234 73.4661C30.9318 74.4722 30.1638 75.1071 29.0424 75.1071C28.8059 75.1071 28.5777 75.056 28.4664 75.0048C28.4052 74.9806 28.4219 74.8865 28.4914 74.9026C28.5526 74.9107 28.6389 74.9188 28.753 74.9188C29.6184 74.9188 30.1526 74.4211 30.1526 73.5146C30.1526 72.8286 29.7408 72.382 28.9645 72.296C28.728 72.2717 28.4747 72.2717 28.2911 72.2717V72.2744Z" fill="#333333"></path>
    <path d="M34.3096 72.0796C34.3624 71.9693 34.3791 71.9531 34.4153 71.9531C34.4404 71.9531 34.4598 71.9693 34.5016 72.0796C34.6407 72.4615 35.0609 73.586 35.5256 74.7346C35.7871 75.3776 36.0598 76.0124 36.3214 76.6204C36.5218 77.0938 36.672 77.188 37.0727 77.2364C37.1339 77.2364 37.1423 77.3386 37.0727 77.3386C36.7416 77.3305 36.3631 77.3144 35.9958 77.3144C35.7871 77.3144 35.4365 77.3305 35.2251 77.3386C35.1555 77.3386 35.1638 77.2364 35.2251 77.2364C35.5562 77.2014 35.6285 77.1019 35.495 76.728C35.3558 76.3298 35.1638 75.8322 34.9524 75.3076H33.2911C33.1604 75.6466 32.9155 76.2545 32.7847 76.7038C32.6456 77.1691 32.871 77.2014 33.1604 77.2364C33.2216 77.2364 33.2299 77.3386 33.1604 77.3386C32.8793 77.3305 32.5037 77.3144 32.3395 77.3144C32.103 77.3144 31.8247 77.3305 31.527 77.3386C31.4491 77.3386 31.4658 77.2364 31.527 77.2364C31.7468 77.2014 31.9917 77.1772 32.2254 76.7629C32.487 76.2976 32.7847 75.5955 33.0741 74.9203C33.6418 73.6263 34.2817 72.1307 34.3068 72.0796H34.3096ZM34.1426 73.2309C34.0369 73.4676 33.9144 73.7393 33.7837 74.0594C33.6974 74.272 33.4414 74.9122 33.3913 75.0413C33.575 75.0494 33.7837 75.0494 34.0647 75.0494C34.3875 75.0494 34.7214 75.0494 34.8605 75.0413C34.599 74.3392 34.3263 73.6721 34.1426 73.2309Z" fill="#333333"></path>
    <path d="M39.5157 72.2744C39.524 72.7829 39.5157 74.2947 39.5157 74.8192C39.5157 75.2927 39.5324 76.097 39.5407 76.3337C39.5658 77.1192 39.7244 77.1865 40.267 77.2457C40.3366 77.2457 40.3366 77.3398 40.267 77.3398C39.9247 77.3317 39.435 77.3156 39.1567 77.3156C38.9814 77.3156 38.5195 77.3317 38.3247 77.3398C38.2468 77.3398 38.2635 77.2457 38.3247 77.2457C38.6225 77.2107 38.7616 77.1865 38.7783 76.4171C38.7866 76.1293 38.7866 75.1151 38.7866 74.8273C38.7866 74.1682 38.7866 73.3989 38.7783 73.111C38.7616 72.2986 38.6809 72.1991 38.1494 72.1399C38.0882 72.1399 38.0882 72.0458 38.1494 72.0458C38.3498 72.0539 38.8145 72.07 39.0426 72.07C39.3849 72.07 39.7773 72.027 40.3366 72.0458C41.6583 72.0969 42.148 72.8151 42.148 73.4661C42.1564 74.4722 41.3884 75.1071 40.267 75.1071C40.0305 75.1071 39.8023 75.056 39.6882 75.0048C39.627 74.9806 39.6437 74.8865 39.7133 74.9026C39.7745 74.9107 39.8607 74.9188 39.9748 74.9188C40.8402 74.9188 41.3745 74.4211 41.3745 73.5146C41.3745 72.8286 40.9626 72.382 40.1835 72.296C39.947 72.2717 39.6938 72.2717 39.5101 72.2717L39.5157 72.2744Z" fill="#333333"></path>
    <path d="M45.5322 72.0796C45.5851 71.9693 45.6018 71.9531 45.638 71.9531C45.663 71.9531 45.6825 71.9693 45.7242 72.0796C45.8634 72.4615 46.2835 73.586 46.7482 74.7346C47.0098 75.3776 47.2825 76.0124 47.5441 76.6204C47.7444 77.0938 47.8947 77.188 48.2954 77.2364C48.3566 77.2364 48.3649 77.3386 48.2954 77.3386C47.9642 77.3305 47.5858 77.3144 47.2185 77.3144C47.0098 77.3144 46.6592 77.3305 46.4477 77.3386C46.3782 77.3386 46.3865 77.2364 46.4477 77.2364C46.7816 77.2014 46.8512 77.1019 46.7176 76.728C46.5785 76.3298 46.3865 75.8322 46.175 75.3076H44.5138C44.383 75.6466 44.1382 76.2545 44.0074 76.7038C43.8682 77.1691 44.0936 77.2014 44.383 77.2364C44.4442 77.2364 44.4526 77.3386 44.383 77.3386C44.102 77.3305 43.7263 77.3144 43.5622 77.3144C43.3256 77.3144 43.0446 77.3305 42.7496 77.3386C42.6717 77.3386 42.6884 77.2364 42.7496 77.2364C42.9695 77.2014 43.2143 77.1772 43.4481 76.7629C43.7096 76.2976 44.0074 75.5955 44.2968 74.9203C44.8644 73.6263 45.5044 72.1307 45.5295 72.0796H45.5322ZM45.3681 73.2309C45.2623 73.4676 45.1399 73.7393 45.0091 74.0594C44.9228 74.272 44.6668 74.9122 44.6168 75.0413C44.8004 75.0494 45.0091 75.0494 45.2901 75.0494C45.6129 75.0494 45.9468 75.0494 46.086 75.0413C45.8244 74.3392 45.5517 73.6721 45.3681 73.2309Z" fill="#333333"></path>
    <path d="M53.8975 72.1395C54.1257 72.2148 54.2732 72.352 54.2732 72.6291C54.2732 72.89 54.2203 73.2128 54.2036 73.5249C54.1953 73.5841 54.0812 73.576 54.0812 73.5249C53.9838 72.5618 53.277 72.1637 52.3393 72.1637C50.7643 72.1637 50.0826 73.194 50.1104 74.6762C50.1355 76.2741 51.0036 77.2049 52.5424 77.2049C52.8569 77.2049 53.1713 77.1699 53.3549 77.1296C53.5219 77.0973 53.5748 77.0354 53.5748 76.8337C53.5748 76.4113 53.5748 76.1154 53.5664 75.7684C53.5497 75.1524 53.2158 75.1524 52.893 75.0932C52.8318 75.0932 52.8318 74.999 52.893 74.999C53.1629 75.0071 53.5915 75.0233 53.8892 75.0233C54.0812 75.0233 54.5376 75.0071 54.7296 74.999C54.7991 74.999 54.7991 75.0824 54.7296 75.0932C54.4068 75.1766 54.3177 75.2707 54.301 75.9809C54.2927 76.2176 54.301 76.4893 54.301 76.7153C54.301 76.8498 54.3094 77.0462 54.3177 77.1726C53.9421 77.3663 53.1184 77.4685 52.4979 77.4685C50.6614 77.4685 49.2617 76.5727 49.2617 74.7542C49.2617 73.1402 50.3998 71.9297 52.3393 71.9297C52.9431 71.9297 53.4245 71.9808 53.8975 72.1422V72.1395Z" fill="#333333"></path>
    <path d="M58.5322 72.0796C58.5851 71.9693 58.6018 71.9531 58.638 71.9531C58.663 71.9531 58.6825 71.9693 58.7242 72.0796C58.8634 72.4615 59.2835 73.586 59.7482 74.7346C60.0098 75.3776 60.2825 76.0124 60.5441 76.6204C60.7444 77.0938 60.8947 77.188 61.2954 77.2364C61.3566 77.2364 61.3649 77.3386 61.2954 77.3386C60.9642 77.3305 60.5858 77.3144 60.2185 77.3144C60.0098 77.3144 59.6592 77.3305 59.4477 77.3386C59.3782 77.3386 59.3865 77.2364 59.4477 77.2364C59.7816 77.2014 59.8512 77.1019 59.7176 76.728C59.5785 76.3298 59.3865 75.8322 59.175 75.3076H57.5138C57.383 75.6466 57.1382 76.2545 57.0074 76.7038C56.8682 77.1691 57.0936 77.2014 57.383 77.2364C57.4442 77.2364 57.4526 77.3386 57.383 77.3386C57.102 77.3305 56.7263 77.3144 56.5622 77.3144C56.3256 77.3144 56.0446 77.3305 55.7496 77.3386C55.6717 77.3386 55.6884 77.2364 55.7496 77.2364C55.9695 77.2014 56.2143 77.1772 56.4481 76.7629C56.7096 76.2976 57.0074 75.5955 57.2968 74.9203C57.8644 73.6263 58.5044 72.1307 58.5294 72.0796H58.5322ZM58.3653 73.2309C58.2595 73.4676 58.1371 73.7393 58.0063 74.0594C57.9201 74.272 57.6641 74.9122 57.614 75.0413C57.7976 75.0494 58.0063 75.0494 58.2874 75.0494C58.6101 75.0494 58.9441 75.0494 59.0832 75.0413C58.8216 74.3392 58.5489 73.6721 58.3653 73.2309Z" fill="#333333"></path>
    <path d="M67.9716 72.2844C67.8937 72.2494 67.788 72.2333 67.6656 72.2333C67.1063 72.2333 66.5108 72.7229 66.0906 73.2905C65.6259 73.9173 65.0137 75.0336 65.0137 75.6739V76.4701C65.0137 77.2314 65.1445 77.1803 65.6259 77.2395C65.6955 77.2395 65.6955 77.3417 65.6259 77.3417C65.2419 77.3337 64.8551 77.3175 64.6631 77.3175C64.4711 77.3175 64.1038 77.3337 63.7087 77.3417C63.6391 77.3417 63.6475 77.2395 63.7087 77.2395C64.0843 77.1803 64.2513 77.1642 64.2513 76.4701V75.8541C64.2513 75.1951 63.884 74.2401 63.4471 73.5972C62.8878 72.7686 62.284 72.2952 61.708 72.279C61.5605 72.279 61.3574 72.3032 61.2711 72.3382C61.2182 72.3624 61.1932 72.2952 61.2461 72.2629C61.3852 72.1526 61.6217 72.002 62.1643 72.002C63.0743 72.002 63.7198 72.6287 64.14 73.2878C64.4822 73.8285 64.7271 74.4122 64.8829 75.039C64.9191 74.7351 65.1445 73.8796 65.74 73.086C66.3883 72.2064 66.9727 72.0208 67.4986 72.0208C67.6989 72.0208 67.9188 72.0719 68.0245 72.2225C68.0607 72.2737 68.0078 72.3059 67.9716 72.2898V72.2844Z" fill="#333333"></path>
    <path d="M71.6365 77.4578C69.9224 77.4578 68.6813 76.5351 68.6452 74.7785C68.6118 73.1133 69.914 71.9297 71.7506 71.9297C73.5871 71.9297 74.5944 73.2317 74.5944 74.5767C74.5944 76.2338 73.3172 77.4604 71.6392 77.4604L71.6365 77.4578ZM69.4939 74.6762C69.4939 76.1638 70.3342 77.213 71.6726 77.213C73.0111 77.213 73.7624 76.2311 73.7624 74.921C73.7624 73.5357 73.0528 72.1395 71.4278 72.1825C70.1255 72.2148 69.4939 73.2317 69.4939 74.6762Z" fill="#333333"></path>
    <path d="M41.1671 83.2941C41.4036 83.3775 41.5177 83.5066 41.5177 83.7837C41.5177 84.0446 41.4732 84.3513 41.4565 84.6633C41.4482 84.7306 41.3341 84.7225 41.3341 84.6633C41.2367 83.6814 40.477 83.3102 39.5838 83.3102C38.1591 83.3102 37.3522 84.206 37.38 85.8389C37.4162 87.6062 38.4569 88.3406 39.7341 88.3406C40.861 88.3406 41.2812 87.851 41.4036 87.0386C41.4036 86.9714 41.5261 86.9633 41.5261 87.0386C41.5344 87.2323 41.5344 87.4771 41.5344 87.6224C41.5261 88.2303 41.3869 88.2734 41.0976 88.3998C40.8889 88.494 40.4325 88.6123 39.7062 88.6123C37.7807 88.6123 36.5396 87.5901 36.5313 85.933C36.5229 84.1657 37.764 83.0762 39.6367 83.0762C40.1709 83.0762 40.7024 83.1273 41.1671 83.2968V83.2941Z" fill="#333333"></path>
    <path d="M45.9452 88.6042C44.2311 88.6042 42.99 87.6816 42.9539 85.925C42.9177 84.2598 44.2227 83.0762 46.0593 83.0762C47.8958 83.0762 48.9031 84.3782 48.9031 85.7232C48.9031 87.3803 47.6259 88.6069 45.9479 88.6069L45.9452 88.6042ZM43.7998 85.8227C43.7998 87.3103 44.6401 88.3594 45.9786 88.3594C47.317 88.3594 48.0683 87.3776 48.0683 86.0675C48.0683 84.6821 47.3587 83.286 45.7337 83.329C44.4314 83.3613 43.7998 84.3782 43.7998 85.8227Z" fill="#333333"></path>
    <path d="M50.6751 86.9983C50.6918 86.9391 50.7725 86.9472 50.7725 86.9983C50.7975 87.8268 51.2372 88.3944 52.0581 88.3944C52.8289 88.3944 53.2741 87.9802 53.2741 87.3964C53.2741 86.7616 52.8289 86.4656 51.9885 86.0783C51.1843 85.707 50.7113 85.2578 50.7196 84.4373C50.728 83.6088 51.4375 83.0762 52.417 83.0762C52.801 83.0762 53.1071 83.1354 53.2991 83.2026C53.5356 83.286 53.6497 83.4151 53.6414 83.6761C53.6414 83.8294 53.5802 84.2168 53.5551 84.4212C53.5468 84.4885 53.4577 84.4804 53.4577 84.4212C53.3882 83.8536 53.0292 83.2968 52.3196 83.2968C51.7158 83.2968 51.3151 83.5927 51.3151 84.1926C51.3151 84.8274 51.8132 85.1637 52.3642 85.4192C53.5189 85.9599 53.9113 86.3742 53.8946 87.1624C53.8862 88.042 53.0709 88.6177 52.0414 88.6177C51.4904 88.6177 51.1315 88.5343 50.8949 88.4052C50.7029 88.311 50.5805 88.1523 50.5638 87.9559C50.5388 87.6762 50.6083 87.2458 50.6779 87.001L50.6751 86.9983Z" fill="#333333"></path>
    <path d="M60.1308 84.4111C60.1224 84.4703 60.025 84.4622 60.025 84.4111C60.0083 83.7601 59.7189 83.5745 59.2988 83.5476C58.7645 83.5153 58.5475 83.5234 58.0382 83.5234C58.0215 83.6256 58.0132 83.9726 58.0132 84.1824C58.0048 85.401 58.0048 86.8133 58.0132 87.5235C58.0215 88.2929 58.1718 88.3359 58.6866 88.387C58.7478 88.387 58.7645 88.4892 58.6866 88.4892C58.4334 88.4812 57.9436 88.465 57.6542 88.465C57.5568 88.465 56.8668 88.4812 56.6302 88.4892C56.5607 88.4892 56.569 88.387 56.6302 88.387C56.9614 88.3278 57.2341 88.352 57.2424 87.5746C57.2508 86.8133 57.2424 85.1912 57.2341 84.1582C57.2341 83.9807 57.2257 83.6256 57.209 83.5234C56.7888 83.5234 56.3603 83.5315 56.0904 83.5476C55.4003 83.5826 55.2501 83.7843 55.1805 84.4003C55.1721 84.4515 55.0748 84.4515 55.0748 84.4003C55.0664 84.247 55.0664 83.6148 55.0664 83.4965C55.0748 83.2006 55.1026 83.1253 55.1443 83.1253C55.1861 83.1253 55.2584 83.1844 55.4059 83.1925C55.712 83.2086 56.3492 83.2517 57.593 83.2517C58.617 83.2517 59.5603 83.2086 59.8942 83.1925C60.0167 83.1844 60.0779 83.1172 60.1224 83.1172C60.1586 83.1172 60.1669 83.1683 60.1669 83.3781C60.1669 83.5557 60.1502 84.2067 60.1308 84.4084V84.4111Z" fill="#333333"></path>
    <path d="M63.4229 83.226C63.4757 83.1158 63.4924 83.0996 63.5286 83.0996C63.5536 83.0996 63.5731 83.1158 63.6149 83.226C63.754 83.608 64.1742 84.7325 64.6389 85.8811C64.9004 86.5241 65.1731 87.1589 65.4347 87.7669C65.635 88.2403 65.7853 88.3345 66.186 88.3829C66.2472 88.3829 66.2556 88.4851 66.186 88.4851C65.8549 88.477 65.4764 88.4609 65.1091 88.4609C64.9004 88.4609 64.5498 88.477 64.3383 88.4851C64.2688 88.4851 64.2771 88.3829 64.3383 88.3829C64.6695 88.3479 64.7418 88.2484 64.6082 87.8745C64.4691 87.4763 64.2771 86.9787 64.0656 86.4541H62.4044C62.2736 86.7931 62.0288 87.401 61.898 87.8502C61.7589 88.3156 61.9842 88.3479 62.2736 88.3829C62.3349 88.3829 62.3432 88.4851 62.2736 88.4851C61.9926 88.477 61.6169 88.4609 61.4528 88.4609C61.2163 88.4609 60.938 88.477 60.6403 88.4851C60.5623 88.4851 60.579 88.3829 60.6403 88.3829C60.8601 88.3479 61.1049 88.3237 61.3387 87.9094C61.6002 87.444 61.898 86.7419 62.1874 86.0667C62.755 84.7728 63.395 83.2772 63.4201 83.226H63.4229ZM63.2559 84.3774C63.1502 84.6141 63.0277 84.8858 62.8969 85.2059C62.8107 85.4184 62.5547 86.0587 62.5046 86.1878C62.6883 86.1959 62.8969 86.1959 63.178 86.1959C63.5008 86.1959 63.8347 86.1959 63.9738 86.1878C63.7122 85.4857 63.4396 84.8186 63.2559 84.3774Z" fill="#333333"></path>
    <path d="M70.6569 85.7034C70.6569 85.0766 70.6652 84.622 70.6402 83.971C70.6235 83.4976 70.4816 83.3362 70.028 83.2958C69.9584 83.2958 69.9501 83.1936 70.028 83.1936C70.2284 83.2017 70.6652 83.2178 70.885 83.2178C71.1661 83.2178 71.717 83.1667 72.2151 83.1828C73.7289 83.2178 73.9654 84.0544 73.9654 84.5601C73.9654 85.195 73.5814 85.6846 72.933 85.9966C73.0638 86.1984 73.4144 86.7068 73.7984 87.1722C74.2186 87.6806 74.4802 87.9496 74.7863 88.1783C75.0061 88.3397 75.251 88.3639 75.4151 88.38C75.4847 88.38 75.493 88.4823 75.4151 88.4823C75.2315 88.4984 74.6444 88.4903 74.444 88.458C73.8235 88.3558 73.5703 88.111 72.8857 87.1561C72.6242 86.7848 72.4211 86.4701 72.2485 86.193C71.9675 86.2172 71.6697 86.2172 71.3748 86.1849C71.3748 86.7525 71.3831 87.2502 71.3915 87.4708C71.4277 88.2644 71.4972 88.3343 72.0037 88.3827C72.0732 88.3827 72.0899 88.4849 72.0037 88.4849C71.6725 88.4769 71.1466 88.4419 70.9713 88.4419C70.7626 88.4419 70.3758 88.4769 70.0697 88.4849C69.9918 88.4849 70.0085 88.3827 70.0697 88.3827C70.5233 88.3235 70.629 88.3074 70.6457 87.4789C70.6624 86.8709 70.6541 86.3033 70.6541 85.7034H70.6569ZM72.037 83.4384C71.7755 83.4142 71.5557 83.4142 71.3803 83.4223C71.3803 83.7693 71.372 84.049 71.372 85.8998C71.6948 85.959 72.0287 85.9751 72.4127 85.9321C72.972 85.881 73.2085 85.3833 73.2085 84.7834C73.2085 84.0221 72.8412 83.4976 72.037 83.4384Z" fill="#333333"></path>
    <path d="M77.6199 87.4874C77.645 88.2218 77.7173 88.3402 78.196 88.3832C78.2572 88.3832 78.2655 88.4854 78.196 88.4854C77.9066 88.4774 77.4864 88.4612 77.2165 88.4612C76.9466 88.4612 76.5431 88.4774 76.2899 88.4854C76.2203 88.4854 76.237 88.3832 76.2899 88.3832C76.7629 88.316 76.8158 88.2218 76.8408 87.4874C76.8575 87.1996 76.8575 86.2769 76.8575 85.9918C76.8575 85.3327 76.8575 84.5122 76.8408 84.2163C76.8046 83.412 76.7351 83.3528 76.2815 83.2936C76.2203 83.2856 76.2119 83.1914 76.2815 83.1914C76.518 83.1995 76.9632 83.2156 77.2248 83.2156C77.4335 83.2156 77.862 83.1995 78.118 83.1914C78.1876 83.1914 78.1876 83.2856 78.118 83.2936C77.7146 83.3447 77.6283 83.412 77.6116 84.2163C77.6033 84.5875 77.6033 85.3838 77.6033 85.9595C77.6033 86.2796 77.6116 87.2103 77.6199 87.4901V87.4874Z" fill="#333333"></path>
    <path d="M84.4679 83.2941C84.7044 83.3775 84.8185 83.5066 84.8185 83.7837C84.8185 84.0446 84.774 84.3513 84.7573 84.6633C84.7489 84.7306 84.6349 84.7225 84.6349 84.6633C84.5375 83.6814 83.7778 83.3102 82.8846 83.3102C81.4599 83.3102 80.6557 84.206 80.6808 85.8389C80.7169 87.6062 81.7576 88.3406 83.0348 88.3406C84.1618 88.3406 84.582 87.851 84.7044 87.0386C84.7044 86.9714 84.8269 86.9633 84.8269 87.0386C84.8352 87.2323 84.8352 87.4771 84.8352 87.6224C84.8268 88.2303 84.6877 88.2734 84.3983 88.3998C84.1896 88.494 83.7333 88.6123 83.007 88.6123C81.0815 88.6123 79.8404 87.5901 79.8321 85.933C79.8237 84.1657 81.0648 83.0762 82.9375 83.0762C83.4717 83.0762 84.0032 83.1273 84.4679 83.2968V83.2941Z" fill="#333333"></path>
    <path d="M88.669 83.226C88.7218 83.1158 88.7385 83.0996 88.7747 83.0996C88.7997 83.0996 88.8192 83.1158 88.861 83.226C89.0001 83.608 89.4203 84.7325 89.885 85.8811C90.1465 86.5241 90.4192 87.1589 90.6808 87.7669C90.8811 88.2403 91.0314 88.3345 91.4321 88.3829C91.4933 88.3829 91.5016 88.4851 91.4321 88.4851C91.101 88.477 90.7225 88.4609 90.3552 88.4609C90.1465 88.4609 89.7959 88.477 89.5844 88.4851C89.5149 88.4851 89.5232 88.3829 89.5844 88.3829C89.9183 88.3479 89.9879 88.2484 89.8543 87.8745C89.7152 87.4763 89.5232 86.9787 89.3117 86.4541H87.6505C87.5197 86.7931 87.2749 87.401 87.1441 87.8502C87.005 88.3156 87.2303 88.3479 87.5197 88.3829C87.581 88.3829 87.5893 88.4851 87.5197 88.4851C87.2387 88.477 86.863 88.4609 86.6989 88.4609C86.4623 88.4609 86.1813 88.477 85.8863 88.4851C85.8084 88.4851 85.8251 88.3829 85.8863 88.3829C86.1062 88.3479 86.351 88.3237 86.5848 87.9094C86.8463 87.444 87.1441 86.7419 87.4335 86.0667C88.0011 84.7728 88.6411 83.2772 88.6662 83.226H88.669ZM88.502 84.3774C88.3963 84.6141 88.2738 84.8858 88.143 85.2059C88.0568 85.4184 87.8008 86.0587 87.7507 86.1878C87.9343 86.1959 88.143 86.1959 88.4241 86.1959C88.7469 86.1959 89.0808 86.1959 89.2199 86.1878C88.9583 85.4857 88.6856 84.8186 88.502 84.3774Z" fill="#333333"></path>
  </g>
  <defs>
    <clipPath id="clip0_1408_10216">
      <rect width="128" height="92" fill="white"></rect>
    </clipPath>
  </defs>
</svg>
