<?xml version="1.0" encoding="UTF-8"?>
<svg xmlns="http://www.w3.org/2000/svg" width="189" height="136" viewBox="0 0 189 136" fill="none">
  <g clip-path="url(#clip0_1391_5263)">
    <path d="M0 59.5923V61.5368H0.291717C0.932674 61.5368 2.1242 61.5289 3.67728 61.5209C6.45476 61.505 10.6251 61.4851 14.8077 61.4851V93.3736H17.3469V61.4335C21.4268 61.4335 25.363 61.4136 28.2596 61.3977C29.8867 61.3897 31.148 61.3818 31.867 61.3818H32.1588V59.644L0.295826 59.5923H0.0041087H0Z" fill="#F6F4F2"></path>
    <path d="M57.6082 79.9048C61.684 77.5904 63.8329 73.9995 63.8329 69.498C63.8329 67.0484 62.7359 64.6426 60.8212 62.8889C58.4628 60.7336 54.9417 59.5923 50.6399 59.5923H38.8726V93.3736H41.3583V73.8683C52.4025 75.6737 59.4612 82.3305 61.7826 93.1469L61.832 93.3696H64.8231L64.7286 93.0197C63.3193 87.7626 60.9239 83.3485 57.6123 79.9008L57.6082 79.9048ZM61.8771 69.502C61.9265 72.9736 59.7488 76.3895 56.1784 78.4653C52.2957 75.0215 47.3118 72.6873 41.3583 71.5181V61.5846C42.1102 61.5846 42.8539 61.5726 43.6345 61.5647C45.5328 61.5408 47.6857 61.517 50.6892 61.5846C57.0166 61.684 61.8278 65.084 61.8813 69.498L61.8771 69.502Z" fill="#F6F4F2"></path>
    <path d="M76.5287 59.5923H74.043V93.3736H76.5287V59.5923Z" fill="#F6F4F2"></path>
    <path d="M101.97 59.5923H99.529L84.146 93.3736H86.5249L90.3789 84.7722C93.9658 82.0959 96.7104 80.5928 99.266 79.8968C102.2 79.0777 105.256 78.8828 108.346 79.3202L114.653 93.3736H117.406L102.048 59.7593L101.97 59.5923ZM107.451 77.2604C104.628 77.0297 101.768 77.3041 98.9496 78.0835C96.809 78.6641 94.5163 79.8372 91.7923 81.7499L100.614 62.0657L107.451 77.2604Z" fill="#F6F4F2"></path>
    <path d="M135.628 59.5923C133.964 59.5923 125.644 59.5923 125.155 59.644H123.491V93.3259L135.628 93.3776C145.119 93.3776 152.844 85.7663 152.844 76.4094C152.844 67.0524 145.123 59.5963 135.628 59.5963V59.5923ZM135.682 91.2262C135.263 91.2262 128.52 91.1785 126.026 91.1308V61.8391C128.586 61.7913 135.193 61.7993 135.6 61.843C140.205 62.2685 143.546 63.6445 146.105 66.1616C148.998 69.0129 150.596 72.8105 150.604 76.8627C150.613 80.8154 149.031 84.5892 146.27 87.2138C143.546 89.8026 139.786 91.2302 135.686 91.2302L135.682 91.2262Z" fill="#F6F4F2"></path>
    <path d="M173.654 59.7593L173.576 59.5923H171.135L155.752 93.3736H158.131L161.985 84.7722C165.576 82.0959 168.317 80.5928 170.872 79.8968C173.806 79.0777 176.863 78.8828 179.953 79.3202L186.26 93.3736H189.012L173.654 59.7593ZM179.061 77.2604C176.234 77.0297 173.379 77.3041 170.56 78.0835C168.42 78.6641 166.127 79.8372 163.403 81.7499L172.224 62.0657L179.061 77.2604Z" fill="#F6F4F2"></path>
    <path d="M107.34 29.8648C108.342 34.084 107.114 38.5855 103.843 41.7469C102.66 42.8922 101.296 43.7471 99.8497 44.3635L98.6089 46.7654C101.021 46.1132 103.301 44.8924 105.195 43.0592C109.456 38.9354 110.705 32.8353 108.572 27.4749L107.336 29.8648H107.34Z" fill="#F6F4F2"></path>
    <path d="M105.195 5.43276C103.301 3.59955 101.02 2.37475 98.6087 1.72656L99.8495 4.12843C101.296 4.74481 102.66 5.5958 103.843 6.74504C107.11 9.91042 108.338 14.408 107.34 18.6272C107.11 19.6014 106.797 20.5677 106.317 21.4943L105.963 22.1783L104.895 24.2501L103.288 27.3558L95.3875 42.6459L94.5082 44.3479L93.629 42.6459L85.7279 27.3558L84.6597 29.4276L91.3651 42.4033L92.9058 45.3818L93.9042 47.3104L94.5123 48.4915L95.1204 47.3104L96.1188 45.3818L97.6596 42.4033L104.365 29.4236L105.971 26.3179L107.04 24.2461L108.034 22.3214C108.256 21.8959 108.408 21.4545 108.58 21.0171C110.713 15.6606 109.464 9.56048 105.203 5.43276H105.195Z" fill="#F6F4F2"></path>
    <path d="M104.357 19.0678L97.6556 6.09216L96.1149 3.10971L95.1164 1.18105L94.5084 0L93.9003 1.18105L92.9019 3.10971L91.3611 6.09216L84.6598 19.0639L83.0533 22.1696L81.985 24.2414L80.9907 26.1661C80.7689 26.5916 80.621 27.033 80.4443 27.4704C78.3119 32.8269 79.5609 38.931 83.8216 43.0547C85.7157 44.8879 87.9961 46.1088 90.4079 46.7609L89.1671 44.3591C87.7208 43.7427 86.3567 42.8877 85.1734 41.7424C81.9029 38.5771 80.6744 34.0795 81.6769 29.8603C81.907 28.8861 82.2234 27.9198 82.7 26.9932L83.0533 26.3092L84.1216 24.2374L85.7281 21.1317L93.6291 5.84164L94.5084 4.13965L95.3876 5.84164L102.422 19.4615H95.8149V21.1317H103.285L104.357 19.0599V19.0678Z" fill="#F6F4F2"></path>
    <path d="M123.801 108.016C123.776 107.029 123.71 106.703 122.844 106.652C122.765 106.663 122.753 106.5 122.844 106.5C123.152 106.512 123.669 106.524 124.084 106.524C124.59 106.524 125.338 106.473 125.905 106.5C127.417 106.548 128.115 107.3 128.115 108.214C128.115 109.24 127.367 109.801 126.681 110.052C128.164 110.262 128.875 111.113 128.892 112.151C128.904 113.615 127.614 114.402 126.126 114.402C125.531 114.402 124.553 114.291 124.162 114.291C123.969 114.291 123.337 114.314 122.95 114.326C122.848 114.326 122.872 114.175 122.95 114.175C123.698 114.124 123.764 113.877 123.801 112.827C123.826 112.227 123.826 111.101 123.826 110.676C123.826 109.789 123.826 108.926 123.801 108.012V108.016ZM125.399 106.827C124.894 106.803 124.881 106.827 124.881 107.125C124.881 107.526 124.894 109.336 124.894 110.036C124.972 110.048 125.411 110.048 125.502 110.048C125.851 110.048 126.122 110.024 126.278 109.96C126.73 109.773 127.014 109.36 127.026 108.672C127.051 107.546 126.521 106.87 125.399 106.823V106.827ZM125.477 110.39H124.898C124.898 110.978 124.886 111.825 124.886 112.465C124.886 112.815 124.898 113.241 124.91 113.463C124.923 113.69 124.976 113.778 125.144 113.865C125.391 113.988 125.711 114.064 126.163 114.064C127.104 114.064 127.753 113.475 127.778 112.453C127.803 111.177 126.911 110.39 125.477 110.39Z" fill="#F6F4F2"></path>
    <path d="M134.779 106.552C134.857 106.389 134.882 106.365 134.935 106.365C134.972 106.365 135.001 106.389 135.063 106.552C135.268 107.117 135.889 108.779 136.575 110.477C136.961 111.427 137.364 112.366 137.75 113.265C138.046 113.965 138.268 114.104 138.859 114.175C138.95 114.175 138.962 114.326 138.859 114.326C138.37 114.314 137.811 114.291 137.269 114.291C136.961 114.291 136.443 114.314 136.131 114.326C136.028 114.326 136.041 114.175 136.131 114.175C136.62 114.124 136.727 113.976 136.53 113.424C136.324 112.835 136.041 112.1 135.728 111.324H133.275C133.082 111.825 132.721 112.724 132.528 113.388C132.322 114.076 132.655 114.124 133.082 114.175C133.173 114.175 133.185 114.326 133.082 114.326C132.667 114.314 132.113 114.291 131.87 114.291C131.521 114.291 131.11 114.314 130.671 114.326C130.556 114.326 130.58 114.175 130.671 114.175C130.995 114.124 131.357 114.088 131.702 113.475C132.088 112.787 132.528 111.75 132.955 110.751C133.793 108.839 134.738 106.628 134.775 106.552H134.779ZM134.533 108.254C134.377 108.604 134.196 109.006 134.003 109.479C133.875 109.793 133.497 110.739 133.423 110.93C133.695 110.942 134.003 110.942 134.418 110.942C134.894 110.942 135.387 110.942 135.593 110.93C135.207 109.892 134.804 108.906 134.533 108.254Z" fill="#F6F4F2"></path>
    <path d="M147.615 106.855C147.5 106.803 147.344 106.779 147.163 106.779C146.337 106.779 145.458 107.503 144.838 108.342C144.151 109.269 143.248 110.919 143.248 111.866V113.043C143.248 114.168 143.441 114.092 144.151 114.18C144.254 114.18 144.254 114.331 144.151 114.331C143.584 114.319 143.013 114.295 142.73 114.295C142.446 114.295 141.904 114.319 141.321 114.331C141.218 114.331 141.23 114.18 141.321 114.18C141.875 114.092 142.122 114.069 142.122 113.043V112.132C142.122 111.158 141.579 109.746 140.934 108.796C140.108 107.571 139.217 106.871 138.366 106.847C138.149 106.847 137.849 106.883 137.721 106.935C137.643 106.97 137.606 106.871 137.684 106.823C137.89 106.66 138.239 106.438 139.04 106.438C140.384 106.438 141.337 107.364 141.957 108.338C142.463 109.138 142.824 110.001 143.054 110.927C143.108 110.478 143.441 109.213 144.32 108.04C145.277 106.74 146.14 106.465 146.917 106.465C147.212 106.465 147.537 106.541 147.693 106.764C147.747 106.839 147.668 106.887 147.615 106.863V106.855Z" fill="#F6F4F2"></path>
    <path d="M41.7746 106.84C41.7869 107.592 41.7746 109.827 41.7746 110.602C41.7746 111.302 41.7993 112.491 41.8116 112.841C41.8486 114.002 42.0828 114.101 42.884 114.189C42.9867 114.189 42.9867 114.328 42.884 114.328C42.3786 114.316 41.6555 114.292 41.2446 114.292C40.9857 114.292 40.3037 114.316 40.0161 114.328C39.9011 114.328 39.9257 114.189 40.0161 114.189C40.4557 114.137 40.6612 114.101 40.6858 112.964C40.6981 112.539 40.6981 111.039 40.6981 110.614C40.6981 109.64 40.6981 108.502 40.6858 108.077C40.6612 106.876 40.542 106.729 39.7572 106.641C39.6669 106.641 39.6669 106.502 39.7572 106.502C40.0531 106.514 40.7392 106.538 41.0761 106.538C41.5815 106.538 42.1608 106.474 42.9867 106.502C44.9383 106.578 45.6614 107.639 45.6614 108.602C45.6738 110.089 44.5398 111.028 42.884 111.028C42.5347 111.028 42.1978 110.952 42.0335 110.876C41.9431 110.841 41.9677 110.701 42.0704 110.725C42.1608 110.737 42.2882 110.749 42.4567 110.749C43.7345 110.749 44.5233 110.014 44.5233 108.673C44.5233 107.659 43.9152 106.999 42.7689 106.872C42.4197 106.836 42.0458 106.836 41.7746 106.836V106.84Z" fill="#F6F4F2"></path>
    <path d="M50.6621 106.552C50.7401 106.389 50.7648 106.365 50.8182 106.365C50.8552 106.365 50.8839 106.389 50.9456 106.552C51.151 107.117 51.7714 108.779 52.4576 110.477C52.8438 111.427 53.2465 112.366 53.6327 113.265C53.9285 113.965 54.1504 114.104 54.742 114.175C54.8324 114.175 54.8447 114.326 54.742 114.326C54.2531 114.314 53.6943 114.291 53.152 114.291C52.8438 114.291 52.3261 114.314 52.0138 114.326C51.9111 114.326 51.9234 114.175 52.0138 114.175C52.5028 114.124 52.6096 113.976 52.4124 113.424C52.207 112.835 51.9235 112.1 51.6112 111.324H49.1583C48.9652 111.825 48.6036 112.724 48.4105 113.388C48.2051 114.076 48.5379 114.124 48.9652 114.175C49.0556 114.175 49.0679 114.326 48.9652 114.326C48.5502 114.314 47.9955 114.291 47.7531 114.291C47.4039 114.291 46.993 114.314 46.5534 114.326C46.4383 114.326 46.463 114.175 46.5534 114.175C46.878 114.124 47.2395 114.088 47.5847 113.475C47.9709 112.787 48.4105 111.75 48.8378 110.751C49.676 108.839 50.621 106.628 50.658 106.552H50.6621ZM50.4156 108.254C50.2594 108.604 50.0786 109.006 49.8855 109.479C49.7582 109.793 49.3802 110.739 49.3062 110.93C49.5774 110.942 49.8855 110.942 50.3005 110.942C50.7771 110.942 51.2702 110.942 51.4756 110.93C51.0894 109.892 50.6867 108.906 50.4156 108.254Z" fill="#F6F4F2"></path>
    <path d="M58.3493 106.84C58.3617 107.592 58.3493 109.827 58.3493 110.602C58.3493 111.302 58.374 112.491 58.3863 112.841C58.4233 114.002 58.6575 114.101 59.4587 114.189C59.5614 114.189 59.5614 114.328 59.4587 114.328C58.9533 114.316 58.2302 114.292 57.8193 114.292C57.5605 114.292 56.8784 114.316 56.5908 114.328C56.4758 114.328 56.5004 114.189 56.5908 114.189C57.0304 114.137 57.2359 114.101 57.2605 112.964C57.2728 112.539 57.2728 111.039 57.2728 110.614C57.2728 109.64 57.2728 108.502 57.2605 108.077C57.2359 106.876 57.1167 106.729 56.332 106.641C56.2416 106.641 56.2416 106.502 56.332 106.502C56.6278 106.514 57.3139 106.538 57.6508 106.538C58.1562 106.538 58.7355 106.474 59.5614 106.502C61.513 106.578 62.2361 107.639 62.2361 108.602C62.2485 110.089 61.1145 111.028 59.4587 111.028C59.1094 111.028 58.7725 110.952 58.6041 110.876C58.5137 110.841 58.5383 110.701 58.641 110.725C58.7314 110.737 58.8588 110.749 59.0273 110.749C60.3051 110.749 61.0939 110.014 61.0939 108.673C61.0939 107.659 60.4858 106.999 59.3354 106.872C58.9862 106.836 58.6123 106.836 58.3411 106.836L58.3493 106.84Z" fill="#F6F4F2"></path>
    <path d="M67.2324 106.552C67.3105 106.389 67.3351 106.365 67.3885 106.365C67.4255 106.365 67.4543 106.389 67.5159 106.552C67.7213 107.117 68.3417 108.779 69.0279 110.477C69.4141 111.427 69.8168 112.366 70.203 113.265C70.4988 113.965 70.7207 114.104 71.3123 114.175C71.4027 114.175 71.415 114.326 71.3123 114.326C70.8234 114.314 70.2646 114.291 69.7223 114.291C69.4141 114.291 68.8964 114.314 68.5842 114.326C68.4814 114.326 68.4938 114.175 68.5842 114.175C69.0772 114.124 69.1799 113.976 68.9827 113.424C68.7773 112.835 68.4938 112.1 68.1815 111.324H65.7286C65.5355 111.825 65.1739 112.724 64.9808 113.388C64.7754 114.076 65.1082 114.124 65.5355 114.175C65.6259 114.175 65.6382 114.326 65.5355 114.326C65.1205 114.314 64.5659 114.291 64.3234 114.291C63.9742 114.291 63.5592 114.314 63.1237 114.326C63.0087 114.326 63.0333 114.175 63.1237 114.175C63.4483 114.124 63.8099 114.088 64.155 113.475C64.5412 112.787 64.9808 111.75 65.4081 110.751C66.2463 108.839 67.1913 106.628 67.2283 106.552H67.2324ZM66.99 108.254C66.8339 108.604 66.6531 109.006 66.46 109.479C66.3326 109.793 65.9546 110.739 65.8806 110.93C66.1518 110.942 66.46 110.942 66.8749 110.942C67.3516 110.942 67.8446 110.942 68.05 110.93C67.6638 109.892 67.2612 108.906 66.99 108.254Z" fill="#F6F4F2"></path>
    <path d="M79.5834 106.641C79.9203 106.752 80.138 106.955 80.138 107.364C80.138 107.75 80.06 108.227 80.0353 108.689C80.023 108.776 79.8545 108.764 79.8545 108.689C79.7107 107.265 78.6671 106.677 77.2825 106.677C74.957 106.677 73.9504 108.2 73.9914 110.391C74.0284 112.753 75.3103 114.129 77.5824 114.129C78.0467 114.129 78.511 114.077 78.7822 114.017C79.0287 113.97 79.1068 113.878 79.1068 113.58C79.1068 112.956 79.1068 112.518 79.0944 112.005C79.0698 111.095 78.5767 111.095 78.1001 111.007C78.0097 111.007 78.0097 110.868 78.1001 110.868C78.4987 110.88 79.1314 110.904 79.571 110.904C79.8545 110.904 80.5284 110.88 80.8119 110.868C80.9146 110.868 80.9146 110.991 80.8119 111.007C80.3353 111.13 80.2038 111.27 80.1791 112.319C80.1668 112.669 80.1791 113.071 80.1791 113.405C80.1791 113.604 80.1915 113.894 80.2038 114.081C79.6491 114.367 78.4329 114.518 77.5167 114.518C74.805 114.518 72.7383 113.194 72.7383 110.506C72.7383 108.12 74.4187 106.331 77.2825 106.331C78.1741 106.331 78.8849 106.406 79.5834 106.645V106.641Z" fill="#F6F4F2"></path>
    <path d="M86.4282 106.552C86.5063 106.389 86.5309 106.365 86.5843 106.365C86.6213 106.365 86.6501 106.389 86.7117 106.552C86.9171 107.117 87.5375 108.779 88.2237 110.477C88.6099 111.427 89.0126 112.366 89.3988 113.265C89.6946 113.965 89.9165 114.104 90.5081 114.175C90.5985 114.175 90.6108 114.326 90.5081 114.326C90.0192 114.314 89.4604 114.291 88.9181 114.291C88.6099 114.291 88.0922 114.314 87.78 114.326C87.6772 114.326 87.6896 114.175 87.78 114.175C88.273 114.124 88.3757 113.976 88.1785 113.424C87.9731 112.835 87.6896 112.1 87.3773 111.324H84.9244C84.7313 111.825 84.3697 112.724 84.1766 113.388C83.9712 114.076 84.304 114.124 84.7313 114.175C84.8217 114.175 84.834 114.326 84.7313 114.326C84.3163 114.314 83.7617 114.291 83.5192 114.291C83.17 114.291 82.755 114.314 82.3195 114.326C82.2045 114.326 82.2291 114.175 82.3195 114.175C82.6441 114.124 83.0057 114.088 83.3508 113.475C83.737 112.787 84.1766 111.75 84.6039 110.751C85.4421 108.839 86.3871 106.628 86.4241 106.552H86.4282ZM86.1817 108.254C86.0255 108.604 85.8448 109.006 85.6517 109.479C85.5243 109.793 85.1463 110.739 85.0723 110.93C85.3435 110.942 85.6517 110.942 86.0666 110.942C86.5432 110.942 87.0363 110.942 87.2417 110.93C86.8555 109.892 86.4528 108.906 86.1817 108.254Z" fill="#F6F4F2"></path>
    <path d="M100.365 106.855C100.25 106.803 100.094 106.779 99.9131 106.779C99.0873 106.779 98.208 107.503 97.5876 108.342C96.9014 109.269 95.9975 110.919 95.9975 111.866V113.043C95.9975 114.168 96.1906 114.092 96.9014 114.18C97.0041 114.18 97.0041 114.331 96.9014 114.331C96.3344 114.319 95.7633 114.295 95.4798 114.295C95.1963 114.295 94.654 114.319 94.0705 114.331C93.9678 114.331 93.9802 114.18 94.0705 114.18C94.6252 114.092 94.8717 114.069 94.8717 113.043V112.132C94.8717 111.158 94.3294 109.746 93.6843 108.796C92.8585 107.571 91.9669 106.871 91.1164 106.847C90.8986 106.847 90.5987 106.883 90.4713 106.935C90.3933 106.97 90.3563 106.871 90.4343 106.823C90.6398 106.66 90.989 106.438 91.7902 106.438C93.1338 106.438 94.087 107.364 94.7074 108.338C95.2128 109.138 95.5743 110.001 95.8044 110.927C95.8578 110.478 96.1906 109.213 97.0699 108.04C98.0272 106.74 98.89 106.465 99.6666 106.465C99.9624 106.465 100.287 106.541 100.443 106.764C100.497 106.839 100.418 106.887 100.365 106.863V106.855Z" fill="#F6F4F2"></path>
    <path d="M105.776 114.502C103.245 114.502 101.412 113.139 101.359 110.542C101.31 108.08 103.232 106.331 105.944 106.331C108.656 106.331 110.143 108.255 110.143 110.244C110.143 112.693 108.257 114.506 105.78 114.506L105.776 114.502ZM102.612 110.391C102.612 112.59 103.853 114.141 105.829 114.141C107.805 114.141 108.915 112.689 108.915 110.753C108.915 108.705 107.867 106.641 105.468 106.704C103.545 106.752 102.612 108.255 102.612 110.391Z" fill="#F6F4F2"></path>
    <path d="M60.7841 123.13C61.1334 123.253 61.3018 123.444 61.3018 123.854C61.3018 124.24 61.2361 124.693 61.2114 125.154C61.1991 125.254 61.0306 125.242 61.0306 125.154C60.8868 123.703 59.7652 123.154 58.4463 123.154C56.3426 123.154 55.1511 124.478 55.1922 126.892C55.2456 129.505 56.7822 130.59 58.6681 130.59C60.3322 130.59 60.9526 129.867 61.1333 128.666C61.1333 128.566 61.3141 128.554 61.3141 128.666C61.3265 128.952 61.3265 129.314 61.3265 129.529C61.3141 130.427 61.1087 130.491 60.6814 130.678C60.3732 130.817 59.6994 130.992 58.627 130.992C55.7838 130.992 53.9514 129.481 53.939 127.031C53.9267 124.419 55.7592 122.808 58.5243 122.808C59.3132 122.808 60.098 122.884 60.7841 123.134V123.13Z" fill="#F6F4F2"></path>
    <path d="M67.8388 130.98C65.3079 130.98 63.4754 129.616 63.422 127.019C63.3686 124.558 65.2955 122.808 68.0073 122.808C70.719 122.808 72.2064 124.733 72.2064 126.721C72.2064 129.171 70.3205 130.984 67.8429 130.984L67.8388 130.98ZM64.671 126.868C64.671 129.067 65.9118 130.618 67.8881 130.618C69.8644 130.618 70.9738 129.167 70.9738 127.23C70.9738 125.182 69.926 123.118 67.5266 123.182C65.6037 123.23 64.671 124.733 64.671 126.868Z" fill="#F6F4F2"></path>
    <path d="M74.8234 128.606C74.8481 128.519 74.9672 128.53 74.9672 128.606C75.0042 129.831 75.6534 130.67 76.8654 130.67C78.0035 130.67 78.6609 130.057 78.6609 129.195C78.6609 128.256 78.0035 127.819 76.7627 127.246C75.5753 126.697 74.8768 126.033 74.8892 124.82C74.9015 123.595 75.9492 122.808 77.3955 122.808C77.9625 122.808 78.4144 122.896 78.6979 122.995C79.0472 123.118 79.2156 123.309 79.2033 123.695C79.2033 123.922 79.1129 124.494 79.0759 124.796C79.0636 124.896 78.9321 124.884 78.9321 124.796C78.8294 123.957 78.2994 123.134 77.2517 123.134C76.3601 123.134 75.7684 123.572 75.7684 124.458C75.7684 125.397 76.5039 125.894 77.3174 126.272C79.0225 127.071 79.6018 127.683 79.5772 128.849C79.5648 130.149 78.361 131 76.8408 131C76.0273 131 75.4972 130.877 75.148 130.686C74.8645 130.547 74.6837 130.312 74.6591 130.022C74.6221 129.608 74.7248 128.972 74.8275 128.61L74.8234 128.606Z" fill="#F6F4F2"></path>
    <path d="M88.785 124.781C88.7726 124.869 88.6288 124.857 88.6288 124.781C88.6042 123.819 88.1769 123.545 87.5565 123.505C86.7676 123.457 86.4471 123.469 85.6952 123.469C85.6706 123.62 85.6582 124.133 85.6582 124.443C85.6459 126.245 85.6459 128.333 85.6582 129.382C85.6706 130.52 85.8924 130.583 86.6525 130.659C86.7429 130.659 86.7676 130.81 86.6525 130.81C86.2786 130.798 85.5555 130.774 85.1282 130.774C84.9844 130.774 83.9655 130.798 83.6162 130.81C83.5135 130.81 83.5258 130.659 83.6162 130.659C84.1051 130.571 84.5078 130.607 84.5201 129.458C84.5325 128.333 84.5201 125.935 84.5078 124.408C84.5078 124.145 84.4955 123.62 84.4708 123.469C83.8504 123.469 83.2177 123.481 82.8191 123.505C81.8002 123.557 81.5783 123.855 81.4756 124.765C81.4633 124.841 81.3195 124.841 81.3195 124.765C81.3071 124.539 81.3071 123.604 81.3071 123.429C81.3195 122.992 81.3605 122.881 81.4222 122.881C81.4838 122.881 81.5906 122.968 81.8084 122.98C82.2603 123.004 83.2012 123.067 85.0378 123.067C86.5498 123.067 87.9427 123.004 88.4357 122.98C88.6165 122.968 88.7069 122.869 88.7726 122.869C88.826 122.869 88.8384 122.944 88.8384 123.254C88.8384 123.517 88.8137 124.479 88.785 124.777V124.781Z" fill="#F6F4F2"></path>
    <path d="M93.6455 123.03C93.7235 122.867 93.7482 122.843 93.8016 122.843C93.8386 122.843 93.8674 122.867 93.929 123.03C94.1344 123.594 94.7548 125.257 95.441 126.955C95.8272 127.905 96.2298 128.843 96.6161 129.742C96.9119 130.442 97.1338 130.581 97.7254 130.653C97.8158 130.653 97.8281 130.804 97.7254 130.804C97.2365 130.792 96.6777 130.768 96.1353 130.768C95.8272 130.768 95.3095 130.792 94.9972 130.804C94.8945 130.804 94.9069 130.653 94.9972 130.653C95.4862 130.601 95.593 130.454 95.3958 129.901C95.1903 129.313 94.9068 128.577 94.5946 127.802H92.1417C91.9486 128.303 91.587 129.201 91.3939 129.865C91.1885 130.553 91.5213 130.601 91.9486 130.653C92.039 130.653 92.0513 130.804 91.9486 130.804C91.5336 130.792 90.9789 130.768 90.7365 130.768C90.3873 130.768 89.9764 130.792 89.5368 130.804C89.4217 130.804 89.4464 130.653 89.5368 130.653C89.8614 130.601 90.2229 130.565 90.5681 129.953C90.9543 129.265 91.3939 128.227 91.8212 127.229C92.6594 125.316 93.6044 123.105 93.6414 123.03H93.6455ZM93.399 124.732C93.2428 125.082 93.062 125.483 92.8689 125.956C92.7416 126.271 92.3636 127.217 92.2896 127.408C92.5608 127.42 92.8689 127.42 93.2839 127.42C93.7605 127.42 94.2536 127.42 94.459 127.408C94.0728 126.37 93.6701 125.384 93.399 124.732Z" fill="#F6F4F2"></path>
    <path d="M104.328 126.692C104.328 125.765 104.34 125.093 104.304 124.131C104.279 123.431 104.069 123.192 103.4 123.133C103.297 123.133 103.285 122.981 103.4 122.981C103.695 122.993 104.34 123.017 104.665 123.017C105.08 123.017 105.894 122.942 106.629 122.966C108.864 123.017 109.213 124.254 109.213 125.002C109.213 125.94 108.646 126.664 107.689 127.125C107.882 127.423 108.4 128.175 108.967 128.863C109.587 129.614 109.974 130.012 110.425 130.35C110.75 130.589 111.112 130.625 111.354 130.648C111.457 130.648 111.469 130.8 111.354 130.8C111.083 130.823 110.216 130.811 109.92 130.764C109.004 130.613 108.63 130.251 107.619 128.839C107.233 128.29 106.933 127.825 106.678 127.415C106.263 127.451 105.824 127.451 105.388 127.403C105.388 128.243 105.401 128.978 105.413 129.304C105.466 130.477 105.569 130.581 106.317 130.652C106.419 130.652 106.444 130.803 106.317 130.803C105.828 130.792 105.051 130.74 104.792 130.74C104.484 130.74 103.913 130.792 103.461 130.803C103.346 130.803 103.371 130.652 103.461 130.652C104.131 130.565 104.287 130.541 104.312 129.316C104.336 128.418 104.324 127.578 104.324 126.692H104.328ZM106.366 123.343C105.98 123.308 105.655 123.308 105.396 123.32C105.396 123.832 105.384 124.246 105.384 126.982C105.861 127.069 106.354 127.093 106.921 127.03C107.747 126.954 108.096 126.218 108.096 125.332C108.096 124.206 107.553 123.431 106.366 123.343Z" fill="#F6F4F2"></path>
    <path d="M114.608 129.329C114.645 130.415 114.752 130.59 115.458 130.653C115.549 130.653 115.561 130.804 115.458 130.804C115.031 130.793 114.411 130.769 114.012 130.769C113.614 130.769 113.018 130.793 112.644 130.804C112.541 130.804 112.566 130.653 112.644 130.653C113.342 130.554 113.42 130.415 113.457 129.329C113.482 128.904 113.482 127.54 113.482 127.118C113.482 126.144 113.482 124.931 113.457 124.494C113.404 123.305 113.301 123.217 112.632 123.13C112.541 123.118 112.529 122.979 112.632 122.979C112.981 122.99 113.638 123.014 114.024 123.014C114.333 123.014 114.965 122.99 115.343 122.979C115.446 122.979 115.446 123.118 115.343 123.13C114.748 123.205 114.62 123.305 114.596 124.494C114.583 125.042 114.583 126.219 114.583 127.07C114.583 127.544 114.596 128.92 114.608 129.333V129.329Z" fill="#F6F4F2"></path>
    <path d="M124.72 123.13C125.069 123.253 125.237 123.444 125.237 123.854C125.237 124.24 125.172 124.693 125.147 125.154C125.135 125.254 124.966 125.242 124.966 125.154C124.822 123.703 123.701 123.154 122.382 123.154C120.278 123.154 119.091 124.478 119.128 126.892C119.181 129.505 120.718 130.59 122.604 130.59C124.268 130.59 124.888 129.867 125.069 128.666C125.069 128.566 125.25 128.554 125.25 128.666C125.262 128.952 125.262 129.314 125.262 129.529C125.25 130.427 125.044 130.491 124.617 130.678C124.309 130.817 123.635 130.992 122.563 130.992C119.719 130.992 117.887 129.481 117.875 127.031C117.862 124.419 119.695 122.808 122.46 122.808C123.249 122.808 124.033 122.884 124.72 123.134V123.13Z" fill="#F6F4F2"></path>
    <path d="M130.924 123.03C131.002 122.867 131.027 122.843 131.08 122.843C131.117 122.843 131.146 122.867 131.207 123.03C131.413 123.594 132.033 125.257 132.719 126.955C133.106 127.905 133.508 128.843 133.894 129.742C134.19 130.442 134.412 130.581 135.004 130.653C135.094 130.653 135.106 130.804 135.004 130.804C134.515 130.792 133.956 130.768 133.414 130.768C133.106 130.768 132.588 130.792 132.276 130.804C132.173 130.804 132.185 130.653 132.276 130.653C132.769 130.601 132.871 130.454 132.674 129.901C132.469 129.313 132.185 128.577 131.873 127.802H129.42C129.227 128.303 128.865 129.201 128.672 129.865C128.467 130.553 128.8 130.601 129.227 130.653C129.317 130.653 129.33 130.804 129.227 130.804C128.812 130.792 128.257 130.768 128.015 130.768C127.666 130.768 127.251 130.792 126.815 130.804C126.7 130.804 126.725 130.653 126.815 130.653C127.14 130.601 127.501 130.565 127.846 129.953C128.233 129.265 128.672 128.227 129.1 127.229C129.938 125.316 130.883 123.105 130.92 123.03H130.924ZM130.677 124.732C130.521 125.082 130.34 125.483 130.147 125.956C130.02 126.271 129.642 127.217 129.568 127.408C129.839 127.42 130.147 127.42 130.562 127.42C131.039 127.42 131.532 127.42 131.737 127.408C131.351 126.37 130.948 125.384 130.677 124.732Z" fill="#F6F4F2"></path>
  </g>
  <defs>
    <clipPath id="clip0_1391_5263">
      <rect width="189" height="136" fill="white"></rect>
    </clipPath>
  </defs>
</svg>
