<svg width="100" height="100" viewBox="0 0 100 100" fill="none" xmlns="http://www.w3.org/2000/svg">
<g clip-path="url(#clip0_2_29)">
<path d="M2.93885 72.4882H0V72.0557H0.847122V64.7648H0.0683453V64.3326H5.2741C6.37878 64.3326 7.87158 64.3551 7.88633 64.3544L7.88993 64.3626L8.18453 66.8996H7.79568L7.76439 66.7926C7.29604 65.2173 6.96619 64.7648 5.2741 64.7648H2.21439V68.3245H4.01223C5.53489 68.3245 5.97734 68.1865 5.97734 67.213V67.0565H6.36475V69.9758H5.97734V69.8214C5.97734 69.1282 5.5464 68.757 4.01223 68.757H2.21439V72.0557H2.93885V72.4882Z" fill="black"/>
<path d="M13.0942 66.0363C11.059 66.0363 9.89206 67.1745 9.89206 69.1603C9.89206 71.1496 11.0291 72.2454 13.0942 72.2454C15.1651 72.2454 16.305 71.1496 16.305 69.1603C16.305 67.1745 15.1352 66.0363 13.0942 66.0363ZM13.0942 72.6354C10.1187 72.6354 8.51221 70.8451 8.51221 69.1603C8.51221 66.9595 10.8424 65.6452 13.0942 65.6452C16.0705 65.6452 17.6762 67.4562 17.6762 69.1603C17.6762 71.4174 15.3158 72.6354 13.0942 72.6354Z" fill="black"/>
<path d="M22.4547 72.6354C20.7813 72.6354 18.786 72.045 18.786 69.2295V66.1847H18.0975V65.7931H20.809V66.1847H20.0587V69.2295C20.0587 71.8535 21.5598 72.2454 22.4547 72.2454C23.8572 72.2454 25.3558 71.4534 25.3558 69.2295V66.1847H24.6767V65.7931H26.3313V66.1847H25.7065V69.2295C25.7065 71.744 23.9554 72.6354 22.4547 72.6354Z" fill="black"/>
<path d="M28.9086 69.1232H31.3399C32.5018 69.1232 33.0435 68.6575 33.0435 67.6587C33.0435 66.6528 32.5047 66.1847 31.3489 66.1847H28.9086V69.1232ZM31.4104 69.5136H28.9086V72.097H29.5309V72.4882H26.9108V72.097H27.6888V66.1847H26.9108V65.7931H31.3489C32.1097 65.7931 34.4234 65.7931 34.4234 67.6587C34.4234 68.5056 33.9464 69.0879 33.0395 69.3493C33.0395 69.3493 32.5277 69.5136 31.4104 69.5136Z" fill="black"/>
<path d="M47.6759 65.1035L47.8569 67.0925L47.4914 67.0822L47.3849 66.7484C46.8741 65.2515 45.8184 64.6118 44.1529 64.6118C42.5058 64.6118 41.5231 65.0757 41.5231 65.8516C41.5231 66.6971 42.8867 67.0394 44.3299 67.4009C46.1123 67.8467 48.1302 68.3526 48.1302 70.0303C48.1302 71.784 46.7727 72.6736 44.0939 72.6736C44.0939 72.6736 42.122 72.6044 40.5943 72.0314L40.1504 69.6666H40.4871L40.6209 70.0246C41.168 71.371 42.5313 72.2414 44.0939 72.2414C45.2486 72.2414 47.1849 72.0335 47.1849 70.6415C47.1849 69.6452 45.741 69.2979 44.2126 68.9299C42.4252 68.4995 40.5774 68.0538 40.5774 66.4635C40.5774 65.0115 41.8802 64.1804 44.1529 64.1804C44.845 64.1804 45.2583 64.2624 45.9198 64.4464C45.9198 64.4464 47.0583 64.7766 47.6759 65.1035Z" fill="black"/>
<path d="M56.2179 72.5435L56.1849 72.5424C56.1733 72.5417 55.0158 72.4882 54.3766 72.4882H49.3359V72.0967H50.0874V66.1847H49.3359V65.7931H54.2169C54.8316 65.7931 55.4669 65.7931 55.61 65.7429L55.9795 65.6987L56.1996 67.5771L55.9032 67.5931L55.8723 67.4972C55.4694 66.2556 54.8539 66.1847 54.2169 66.1847H51.3061V68.8073H52.9403C54.1054 68.8073 54.4935 68.6554 54.4935 67.8256V67.6798H54.8442V70.2528H54.4935V70.1081C54.4935 69.4855 54.1154 69.1981 52.9403 69.1981H51.3061V72.0967H54.3766C55.4971 72.0967 55.7586 71.7476 56.1399 70.8647L56.1723 70.7723H56.5377L56.2179 72.5435Z" fill="black"/>
<path d="M59.3623 69.8937H63.1727L61.2713 66.4824L59.3623 69.8937ZM63.7076 72.4882V72.0967H64.4051L63.3892 70.2842H59.1364L58.113 72.0967H58.813V72.4882H57.1029V72.0967H57.6975L61.0209 66.1843H60.4302V65.7931H62.2403L62.2795 65.862L65.7511 72.0967H66.4112V72.4857L63.7076 72.4882Z" fill="black"/>
<path d="M79.1338 65.6452C76.8813 65.6452 74.5518 66.9599 74.5518 69.1603C74.5518 70.8454 76.1582 72.6354 79.1338 72.6354C81.355 72.6354 83.7158 71.4174 83.7158 69.1603C83.7158 67.4562 82.1093 65.6452 79.1338 65.6452ZM79.1338 72.2457C77.0694 72.2457 75.9309 71.1496 75.9309 69.1603C75.9309 67.1745 77.0985 66.0363 79.1338 66.0363C81.1741 66.0363 82.3446 67.1745 82.3446 69.1603C82.3446 71.1496 81.2039 72.2457 79.1338 72.2457Z" fill="black"/>
<path d="M84.2842 65.7928V66.1847H84.8122L85.1104 66.4621V72.097H84.3115V72.4882H86.1781V72.097H85.4604V66.7858L91.8324 72.7446L91.9065 72.8134V66.1847H92.5101V65.7935H90.8191V66.1847H91.5558V70.8322L86.1957 65.8046L86.1824 65.7928H84.2842Z" fill="black"/>
<path d="M35.2126 72.2589C34.186 72.2215 34.0744 71.8396 33.8187 71.3318L32.8856 69.3236H31.5061L33.2295 72.6451H35.2165L35.2126 72.2589Z" fill="black"/>
<path d="M73.2029 66.4874L73.3507 68.1127L73.0518 68.1045L72.9647 67.8313C72.5482 66.6083 71.6852 66.0859 70.3237 66.0859C68.978 66.0859 68.1748 66.4646 68.1748 67.0986C68.1748 67.79 69.2896 68.0692 70.469 68.3648C71.9252 68.7295 73.5741 69.1421 73.5741 70.5135C73.5741 71.9473 72.4651 72.6736 70.2762 72.6736C70.2762 72.6736 68.6647 72.6169 67.4158 72.1487L67.0532 70.2161H67.3284L67.4374 70.5092C67.8849 71.6092 68.9989 72.3202 70.2762 72.3202C71.2191 72.3202 72.8018 72.1501 72.8018 71.0127C72.8018 70.199 71.6219 69.9148 70.3726 69.6142C68.9119 69.2626 67.4021 68.8989 67.4021 67.5988C67.4021 66.4129 68.4665 65.7329 70.3237 65.7329C70.8896 65.7329 71.2266 65.7999 71.7676 65.9504C71.7676 65.9504 72.6978 66.2203 73.2029 66.4874Z" fill="black"/>
<path d="M99.3766 66.4874L99.5244 68.1127L99.2255 68.1045L99.1384 67.8313C98.7219 66.6083 97.8589 66.0859 96.4974 66.0859C95.1518 66.0859 94.3485 66.4646 94.3485 67.0986C94.3485 67.79 95.4625 68.0692 96.642 68.3648C98.0989 68.7295 99.7482 69.1421 99.7482 70.5135C99.7482 71.9473 98.6381 72.6736 96.4492 72.6736C96.4492 72.6736 94.8381 72.6169 93.5895 72.1487L93.2269 70.2161H93.5021L93.6111 70.5092C94.0586 71.6092 95.1726 72.3202 96.4492 72.3202C97.3924 72.3202 98.9755 72.1501 98.9755 71.0127C98.9755 70.199 97.7953 69.9148 96.5464 69.6142C95.0856 69.2626 93.5758 68.8989 93.5758 67.5988C93.5758 66.4129 94.6402 65.7329 96.4974 65.7329C97.0633 65.7329 97.4007 65.7999 97.9413 65.9504C97.9413 65.9504 98.8715 66.2203 99.3766 66.4874Z" fill="black"/>
<path d="M60.5824 46.4208C60.0069 46.6554 59.6421 47.0726 59.7828 47.7833C60.4745 47.5533 60.659 47.0334 60.5824 46.4208Z" fill="black"/>
<path d="M58.2659 46.8384C58.377 47.4453 58.7101 47.8878 59.4389 47.8995C59.359 47.18 58.8853 46.8915 58.2659 46.8384Z" fill="black"/>
<path d="M59.436 49.7562C59.4054 49.0409 58.9237 48.7525 58.269 48.6961C58.3421 49.3019 58.6644 49.7416 59.436 49.7562Z" fill="black"/>
<path d="M57.3277 40.2268C56.7079 40.281 56.2345 40.5694 56.1547 41.2879C56.8824 41.2772 57.2173 40.8347 57.3277 40.2268Z" fill="black"/>
<path d="M54.5227 39.6958C54.6339 40.3041 54.968 40.7459 55.6957 40.7573C55.6159 40.0399 55.1421 39.75 54.5227 39.6958Z" fill="black"/>
<path d="M54.3572 37.4811C55.0856 37.4694 55.418 37.0283 55.5302 36.42C54.9104 36.4731 54.437 36.763 54.3572 37.4811Z" fill="black"/>
<path d="M54.9273 34.8143C54.3564 35.0582 53.9974 35.4804 54.1489 36.1878C54.8356 35.9486 55.0133 35.4248 54.9273 34.8143Z" fill="black"/>
<path d="M52.8788 35.3303C52.9004 35.9447 53.1669 36.4275 53.8824 36.5409C53.9072 35.8231 53.4809 35.4701 52.8788 35.3303Z" fill="black"/>
<path d="M52.6129 33.5995C53.3381 33.5881 53.6723 33.147 53.7841 32.5415C53.1647 32.5943 52.6935 32.8828 52.6129 33.5995Z" fill="black"/>
<path d="M53.2219 31.0828C52.6834 31.383 52.3719 31.8376 52.5971 32.523C53.251 32.2167 53.3723 31.679 53.2219 31.0828Z" fill="black"/>
<path d="M52.4055 33.0379C52.4296 32.3201 52.004 31.9671 51.4019 31.8273C51.4234 32.4417 51.69 32.9245 52.4055 33.0379Z" fill="black"/>
<path d="M52.0097 34.0805C51.9309 33.3652 51.4589 33.0778 50.8417 33.0236C50.9539 33.6294 51.2852 34.0687 52.0097 34.0805Z" fill="black"/>
<path d="M50.0712 35.4925C50.2805 35.361 52.528 34.057 52.528 34.057C52.5334 34.0538 52.5417 34.0477 52.5413 34.0299L52.4377 33.2404H52.4028C52.4028 33.2404 52.4334 33.5724 52.4244 33.7054C52.4143 33.8573 52.3938 33.9101 52.278 33.9853L49.7877 35.2583C49.7913 35.4497 49.7946 35.643 49.7985 35.8391C49.832 35.7268 49.9068 35.5959 50.0712 35.4925Z" fill="black"/>
<path d="M49.5198 28.4523C49.4399 27.7363 48.9676 27.4489 48.3518 27.3962C48.4626 28.0002 48.7946 28.4402 49.5198 28.4523Z" fill="black"/>
<path d="M49.5022 29.623C49.4231 28.9084 48.9508 28.6203 48.3342 28.5675C48.4457 29.1719 48.7778 29.6116 49.5022 29.623Z" fill="black"/>
<path d="M49.4842 30.7868C49.405 30.0715 48.9327 29.7845 48.3169 29.7306C48.4277 30.3343 48.7597 30.7761 49.4842 30.7868Z" fill="black"/>
<path d="M49.4666 31.9553C49.3867 31.2415 48.9151 30.9541 48.2986 30.8999C48.4101 31.505 48.7421 31.9446 49.4666 31.9553Z" fill="black"/>
<path d="M49.4485 33.1277C49.369 32.4124 48.8971 32.125 48.2816 32.0708C48.392 32.6763 48.7244 33.1149 49.4485 33.1277Z" fill="black"/>
<path d="M49.4316 34.2927C49.3518 33.5774 48.8795 33.29 48.2629 33.2358C48.3741 33.8416 48.7065 34.2805 49.4316 34.2927Z" fill="black"/>
<path d="M47.8654 31.6294C47.2748 31.8198 46.8805 32.2067 46.9658 32.9223C47.6694 32.7487 47.8953 32.2445 47.8654 31.6294Z" fill="black"/>
<path d="M46.9878 33.7813C47.7126 33.7692 48.0443 33.3299 48.1554 32.7244C47.5392 32.7786 47.0673 33.066 46.9878 33.7813Z" fill="black"/>
<path d="M46.7036 33.0575C46.8061 32.3447 46.4205 31.9478 45.8356 31.7435C45.7906 32.3582 46.0028 32.8674 46.7036 33.0575Z" fill="black"/>
<path d="M46.5525 33.8651C46.473 33.1484 46.0003 32.8592 45.3823 32.8057C45.4942 33.4126 45.8258 33.8523 46.5525 33.8651Z" fill="black"/>
<path d="M48.2795 37.1463C47.6608 37.1998 47.1863 37.4886 47.1064 38.2082C47.8349 38.1964 48.169 37.7539 48.2795 37.1463Z" fill="black"/>
<path d="M46.2457 37.7671C46.9741 37.7564 47.3072 37.3143 47.4191 36.706C46.8004 36.7602 46.3263 37.049 46.2457 37.7671Z" fill="black"/>
<path d="M49.1418 37.587C48.522 37.6402 48.0479 37.9301 47.968 38.6482C48.6957 38.6364 49.0302 38.1954 49.1418 37.587Z" fill="black"/>
<path d="M47.6014 36.3854C48.3273 36.3747 48.6604 35.9329 48.7719 35.3271C48.154 35.3809 47.6809 35.6676 47.6014 36.3854Z" fill="black"/>
<path d="M46.7777 35.9101C47.504 35.8987 47.8371 35.4576 47.9489 34.8521C47.3302 34.9049 46.8576 35.1937 46.7777 35.9101Z" fill="black"/>
<path d="M45.9403 35.4301C46.6666 35.418 46.9989 34.9783 47.1101 34.3707C46.4928 34.4242 46.0194 34.7131 45.9403 35.4301Z" fill="black"/>
<path d="M46.554 36.247C45.9349 36.2991 45.4601 36.589 45.381 37.3075C46.1087 37.295 46.4429 36.8543 46.554 36.247Z" fill="black"/>
<path d="M45.1651 36.1804C45.2547 35.4629 44.8612 35.0732 44.2712 34.8782C44.2374 35.4936 44.459 36.001 45.1651 36.1804Z" fill="black"/>
<path d="M44.9403 37.269C44.8601 36.5505 44.3857 36.262 43.7666 36.2078C43.8774 36.8158 44.2119 37.2583 44.9403 37.269Z" fill="black"/>
<path d="M45.5579 40.926C44.9385 40.9791 44.4651 41.2676 44.3853 41.9861C45.113 41.974 45.4468 41.5329 45.5579 40.926Z" fill="black"/>
<path d="M43.5493 41.514C44.2774 41.5026 44.6112 41.0608 44.7223 40.4528C44.1029 40.507 43.6292 40.7955 43.5493 41.514Z" fill="black"/>
<path d="M46.4165 41.3682C45.7968 41.4224 45.3234 41.7108 45.2435 42.4293C45.9712 42.4168 46.3054 41.9761 46.4165 41.3682Z" fill="black"/>
<path d="M47.278 41.8092C46.6597 41.8634 46.1848 42.1519 46.105 42.8704C46.8327 42.8579 47.1665 42.4172 47.278 41.8092Z" fill="black"/>
<path d="M48.1381 42.2493C47.5187 42.3035 47.0449 42.5919 46.9647 43.3104C47.6931 43.2979 48.027 42.8561 48.1381 42.2493Z" fill="black"/>
<path d="M49.0025 42.6857C48.3834 42.7399 47.909 43.0298 47.8295 43.7472C48.5572 43.7358 48.891 43.2947 49.0025 42.6857Z" fill="black"/>
<path d="M47.769 40.9492C48.4975 40.9363 48.832 40.496 48.9428 39.888C48.3237 39.9422 47.8496 40.2307 47.769 40.9492Z" fill="black"/>
<path d="M46.9342 40.4646C47.6626 40.4528 47.9957 40.0118 48.1076 39.4034C47.4882 39.4576 47.0144 39.7465 46.9342 40.4646Z" fill="black"/>
<path d="M46.109 39.9814C46.8367 39.9697 47.1709 39.5286 47.282 38.9217C46.663 38.9745 46.1881 39.2633 46.109 39.9814Z" fill="black"/>
<path d="M45.2845 39.4986C46.0122 39.4872 46.3457 39.0454 46.4576 38.4375C45.8381 38.4917 45.3637 38.7801 45.2845 39.4986Z" fill="black"/>
<path d="M44.4547 39.0155C45.1824 39.0026 45.5162 38.5623 45.6277 37.9543C45.0087 38.0071 44.5353 38.2956 44.4547 39.0155Z" fill="black"/>
<path d="M44.6974 39.3721C44.0776 39.4255 43.6043 39.7147 43.5237 40.4332C44.2514 40.4211 44.5852 39.98 44.6974 39.3721Z" fill="black"/>
<path d="M43.382 39.8381C43.5593 39.1374 43.2161 38.7028 42.6546 38.4375C42.5464 39.0454 42.7036 39.576 43.382 39.8381Z" fill="black"/>
<path d="M43.1863 40.768C43.1065 40.0503 42.6324 39.7611 42.0133 39.7069C42.1248 40.3148 42.4586 40.7566 43.1863 40.768Z" fill="black"/>
<path d="M43.0259 41.8296C42.9468 41.1096 42.472 40.8212 41.8529 40.768C41.9641 41.3749 42.2975 41.8167 43.0259 41.8296Z" fill="black"/>
<path d="M45.0507 44.7841C45.7784 44.7713 46.1125 44.3309 46.2237 43.7226C45.605 43.7757 45.1305 44.0656 45.0507 44.7841Z" fill="black"/>
<path d="M45.0507 46.4444C45.7784 46.4319 46.1125 45.9915 46.2237 45.3832C45.605 45.4363 45.1312 45.7262 45.0507 46.4444Z" fill="black"/>
<path d="M44.2288 44.3053C44.9572 44.2935 45.2917 43.851 45.4025 43.243C44.7834 43.2969 44.3093 43.5868 44.2288 44.3053Z" fill="black"/>
<path d="M43.4104 43.8235C44.1388 43.811 44.4719 43.3693 44.5841 42.7624C43.9636 42.8151 43.4903 43.104 43.4104 43.8235Z" fill="black"/>
<path d="M42.5859 43.3468C43.3144 43.335 43.6478 42.8925 43.759 42.2856C43.1399 42.3388 42.6658 42.6272 42.5859 43.3468Z" fill="black"/>
<path d="M59.5957 47.8724C59.5957 47.8724 59.7054 49.0627 59.6745 49.5405C59.6378 50.0828 59.5655 50.2732 59.1493 50.5417L50.145 55.1444V55.1437C50.1299 54.2672 50.1119 53.2645 50.0925 52.1731L50.0936 51.8853C50.0828 51.2859 50.2479 50.9639 50.9615 50.5154C51.5802 50.1256 58.2274 46.2686 58.2274 46.2686C58.2425 46.2596 58.2673 46.2422 58.2658 46.189L57.959 43.8524H57.8569C57.8569 43.8524 57.9475 44.8362 57.9209 45.2299C57.8917 45.6781 57.8313 45.8357 57.4882 46.0568L50.0511 49.8578C50.031 48.7268 50.0097 47.5369 49.9878 46.3206L49.9813 45.9904C49.9935 45.6125 50.1292 45.3868 50.6108 45.0844C51.073 44.7934 56.0385 41.9116 56.0385 41.9116C56.05 41.9052 56.0687 41.8913 56.0669 41.8524L55.8378 40.1073H55.7619C55.7619 40.1073 55.8295 40.8415 55.8101 41.1357C55.7878 41.4705 55.7428 41.5882 55.4864 41.7533L49.9565 44.5802C49.9317 43.2127 49.9072 41.831 49.8824 40.4753V40.4746C49.9205 40.282 50.032 40.0324 50.336 39.8413C50.6666 39.6334 54.2209 37.5703 54.2209 37.5703C54.2288 37.566 54.2425 37.5557 54.241 37.5282L54.0774 36.2784H54.0227C54.0227 36.2784 54.0709 36.8047 54.0572 37.0151C54.041 37.2547 54.0094 37.3385 53.8256 37.4569L49.8644 39.483V39.4822C49.841 38.2232 49.8194 36.9973 49.7986 35.8391C49.7946 35.6437 49.7918 35.4497 49.7878 35.2583C49.7058 30.7444 49.645 27.3919 49.645 27.3919C49.645 27.3705 49.6292 27.3534 49.6069 27.3534C49.586 27.3534 49.5702 27.3705 49.5702 27.3919C49.5702 27.3919 49.5112 30.7405 49.432 35.2508C49.4306 35.3406 49.4288 35.4326 49.4266 35.5243C49.4288 35.4326 49.4299 35.3406 49.432 35.2508L46.9558 33.9853C46.8403 33.9097 46.8198 33.8566 46.8097 33.7054C46.8007 33.572 46.8306 33.2397 46.8306 33.2397H46.7964L46.6928 34.0295C46.6925 34.0477 46.7011 34.0541 46.7061 34.057C46.7061 34.057 48.9536 35.361 49.163 35.4925C49.3083 35.5838 49.3831 35.6968 49.4216 35.7988V35.7995L49.4223 35.8003C49.4022 36.9677 49.3806 38.205 49.3576 39.4758L45.4087 37.4576C45.2241 37.3389 45.1932 37.2551 45.1774 37.0151C45.1633 36.8047 45.2115 36.2791 45.2115 36.2791H45.1569L44.9925 37.5282C44.9914 37.5564 45.0054 37.566 45.0137 37.571C45.0137 37.571 48.5676 39.6334 48.8982 39.8413C49.177 40.016 49.2935 40.2403 49.341 40.425V40.4261C49.3169 41.7975 49.2925 43.1963 49.2684 44.5802L43.7378 41.754C43.4813 41.5882 43.4364 41.4709 43.4141 41.1364C43.395 40.8422 43.4623 40.1073 43.4623 40.1073H43.3856L43.1572 41.8527C43.1551 41.892 43.1741 41.9052 43.1856 41.9123C43.1856 41.9123 48.1504 44.7934 48.6133 45.0844C49.109 45.3957 49.2385 45.6264 49.2428 46.0264L49.2371 46.3787V46.378C49.2162 47.5736 49.1957 48.7418 49.1763 49.8546L41.7468 46.0568C41.4036 45.8357 41.3425 45.6781 41.3133 45.2299C41.2874 44.8362 41.3774 43.8531 41.3774 43.8531H41.2748L40.9684 46.189C40.9669 46.2415 40.991 46.2596 41.0069 46.2686C41.0069 46.2686 47.654 50.1263 48.2734 50.5157C48.9871 50.9639 49.1507 51.2859 49.1414 51.8853V51.8903C49.1205 53.0913 49.1015 54.1902 49.0849 55.1419L40.0846 50.5417C39.6691 50.2732 39.5961 50.0828 39.5605 49.5405C39.5288 49.0634 39.6385 47.8724 39.6385 47.8724H39.5141L39.1435 50.7018C39.1403 50.7653 39.1709 50.7874 39.1892 50.7981C39.1892 50.7981 47.24 55.4703 47.9892 55.9417C48.8641 56.4915 49.0403 56.5301 49.0403 57.5367C49.0403 57.583 49.0234 58.7483 49.0234 58.7911C49.0234 59.6683 48.3234 59.6918 48.3234 59.6918L48.3256 59.8644H50.9051L50.9069 59.6918C50.9069 59.6918 50.2072 59.6683 50.2072 58.7911C50.2072 58.7483 50.1932 57.6247 50.1932 57.5367C50.1932 56.5301 50.3694 56.4912 51.2446 55.9417C51.9943 55.4696 60.0457 50.7981 60.0457 50.7981C60.0641 50.7874 60.0939 50.7653 60.0914 50.7018L59.7195 47.8724H59.5957Z" fill="black"/>
<path d="M46.7468 45.7872C47.4749 45.7751 47.8087 45.334 47.9206 44.726C47.3004 44.7788 46.826 45.0687 46.7468 45.7872Z" fill="black"/>
<path d="M48.7399 45.2566C48.1201 45.3094 47.6464 45.5993 47.5669 46.3178C48.2946 46.3056 48.6284 45.8646 48.7399 45.2566Z" fill="black"/>
<path d="M53.1212 42.8547C53.6917 42.4047 53.6853 41.852 53.3989 41.3033C52.941 41.7215 52.7435 42.2371 53.1212 42.8547Z" fill="black"/>
<path d="M51.9417 42.0692C51.4842 42.4878 51.2863 43.0031 51.6644 43.6206C52.2349 43.1706 52.2284 42.618 51.9417 42.0692Z" fill="black"/>
<path d="M50.395 39.934C50.5065 40.5423 50.8396 40.9827 51.5688 40.9955C51.4882 40.277 51.0141 39.9882 50.395 39.934Z" fill="black"/>
<path d="M54.5773 44.6925C54.4967 43.974 54.0234 43.6852 53.4047 43.631C53.5158 44.2393 53.8489 44.6797 54.5773 44.6925Z" fill="black"/>
<path d="M53.1072 45.4798C53.0267 44.7613 52.5533 44.4729 51.9349 44.4187C52.0464 45.0266 52.3795 45.4673 53.1072 45.4798Z" fill="black"/>
<path d="M57.228 51.3166C57.1478 50.5967 56.6723 50.3068 56.0529 50.2526C56.164 50.8619 56.4978 51.3052 57.228 51.3166Z" fill="black"/>
<path d="M55.5418 52.0889C55.4619 51.3694 54.986 51.0795 54.3666 51.0253C54.477 51.6346 54.8115 52.0775 55.5418 52.0889Z" fill="black"/>
<path d="M53.5848 49.2253C53.6967 49.8339 54.0302 50.275 54.7579 50.2864C54.678 49.5694 54.2043 49.2795 53.5848 49.2253Z" fill="black"/>
<path d="M52.4758 53.6393C52.396 52.9197 51.9201 52.6298 51.301 52.5756C51.4118 53.185 51.7456 53.6283 52.4758 53.6393Z" fill="black"/>
<path d="M58.9658 51.834C58.8489 52.5411 59.2615 52.9208 59.8896 53.1073C59.9421 52.5 59.7187 52.0041 58.9658 51.834Z" fill="black"/>
<path d="M57.35 52.9953C57.3809 53.7163 57.8662 54.0069 58.5234 54.0629C58.4518 53.4535 58.1277 53.01 57.35 52.9953Z" fill="black"/>
<path d="M54.8806 55.3633C55.5586 55.0841 55.7054 54.5475 55.5842 53.9385C55.0245 54.2159 54.6881 54.6602 54.8806 55.3633Z" fill="black"/>
<path d="M57.7687 44.4283C57.6885 43.7105 57.2148 43.4213 56.5953 43.3671C56.7072 43.9751 57.041 44.4169 57.7687 44.4283Z" fill="black"/>
<path d="M57.7209 45.4894C57.6417 44.7699 57.1673 44.4814 56.5479 44.4283C56.659 45.0352 56.9925 45.477 57.7209 45.4894Z" fill="black"/>
<path d="M58.3597 46.2005C59.0874 46.1883 59.4205 45.7472 59.5331 45.1389C58.913 45.1921 58.4392 45.4805 58.3597 46.2005Z" fill="black"/>
<path d="M59.3557 43.3668C58.7352 43.4199 58.2615 43.7084 58.182 44.4283C58.9093 44.4154 59.2435 43.9751 59.3557 43.3668Z" fill="black"/>
</g>
<defs>
<clipPath id="clip0_2_29">
<rect width="100" height="46" fill="white" transform="translate(0 27)"/>
</clipPath>
</defs>
</svg>
