<svg width="100" height="100" viewBox="0 0 100 100" fill="none" xmlns="http://www.w3.org/2000/svg">
<g clip-path="url(#clip0_2_17)">
<path fill-rule="evenodd" clip-rule="evenodd" d="M98.185 56.6539H98.0088V56.9793H98.1664C98.1897 56.9819 98.2133 56.9792 98.2356 56.9715C98.2578 56.9639 98.2781 56.9513 98.295 56.9348C98.3124 56.9187 98.3259 56.8987 98.3344 56.8763C98.3428 56.8541 98.3467 56.8304 98.3458 56.8066C98.343 56.7652 98.3249 56.7264 98.2951 56.698C98.2652 56.6697 98.2259 56.6539 98.185 56.6539ZM98.3924 57.5165L98.0069 57.0583V57.5165H97.8658V56.5147H98.1944C98.2335 56.5129 98.2725 56.5192 98.3091 56.5334C98.3456 56.5475 98.3789 56.5692 98.4069 56.5969C98.4361 56.6248 98.4579 56.6579 98.4734 56.6947C98.4879 56.7313 98.4951 56.771 98.4951 56.8108C98.4946 56.8857 98.4654 56.9575 98.4138 57.0109C98.3621 57.0644 98.2921 57.0954 98.2184 57.0973L98.579 57.5185L98.3924 57.5165ZM98.1582 56.302C98.0146 56.302 97.8743 56.3453 97.7549 56.4263C97.6355 56.5072 97.5424 56.6223 97.4873 56.757C97.4325 56.8918 97.4182 57.0401 97.4462 57.1831C97.4743 57.3262 97.5434 57.4576 97.6449 57.5607C97.7292 57.6464 97.8329 57.7096 97.947 57.7449C98.0611 57.7801 98.1819 57.7863 98.2989 57.7628C98.4158 57.7393 98.5253 57.6869 98.6176 57.6102C98.7099 57.5335 98.7822 57.4349 98.8281 57.3231C98.8739 57.2113 98.892 57.0897 98.8806 56.9692C98.8693 56.8486 98.8289 56.7327 98.7629 56.6318C98.697 56.5308 98.6077 56.4479 98.5027 56.3904C98.3978 56.3329 98.2805 56.3025 98.1613 56.302H98.1582ZM98.1582 57.8979C97.9903 57.899 97.8258 57.8494 97.6856 57.7555C97.5455 57.6616 97.4359 57.5276 97.3707 57.3704C97.3055 57.2131 97.2878 57.0398 97.3196 56.8723C97.3515 56.7048 97.4315 56.5507 97.5496 56.4294C97.6679 56.3083 97.8189 56.2256 97.9836 56.1918C98.1482 56.1579 98.319 56.1745 98.4743 56.2393C98.6298 56.3039 98.7626 56.4142 98.8559 56.5561C98.95 56.6975 99.0002 56.8643 99 57.035C99.0008 57.2622 98.9132 57.4805 98.7564 57.6424C98.599 57.8039 98.3851 57.8958 98.1613 57.8979H98.1582ZM94.7368 57.8578L96.3811 62.0448H93.081L94.7368 57.8578ZM91.4076 64.2106H92.2112L92.8062 62.7285H96.6568L97.2613 64.2106H98.0669L94.7368 56.0923L91.4076 64.2106ZM89.2843 64.2106H90.0163V56.3104H89.2802L89.2843 64.2106ZM86.4497 58.5066C86.4601 58.7422 86.4209 58.9773 86.3347 59.1962C86.2485 59.4151 86.1174 59.6128 85.9499 59.7761C85.782 59.9392 85.5816 60.0638 85.3621 60.1413C85.143 60.2192 84.91 60.2483 84.6789 60.2267H83.3706C83.499 60.3586 86.7224 64.1674 86.7535 64.2106H87.6783C87.5072 64.0157 84.6975 60.7345 84.6975 60.7345H85.1009C85.6653 60.7253 86.204 60.4927 86.6022 60.0861C87.0003 59.6795 87.2261 59.1307 87.2314 58.5572C87.2346 58.2504 87.1754 57.9463 87.0573 57.6639C86.9399 57.3814 86.7662 57.1267 86.5473 56.9157C86.3284 56.7046 86.0689 56.5418 85.7851 56.4374C85.5012 56.3327 85.199 56.2888 84.8976 56.3084H82.456V64.2084H83.1901V57.0014H84.7069C84.9191 56.9817 85.133 57.0053 85.3362 57.0707C85.5393 57.136 85.7276 57.2419 85.89 57.3821C86.0521 57.5223 86.1849 57.694 86.2808 57.8871C86.3772 58.0801 86.4342 58.2908 86.4497 58.5066ZM80.0693 60.2162C80.0973 60.6563 80.0351 61.0976 79.8869 61.5121C79.7388 61.9267 79.5084 62.3059 79.2099 62.6261C78.9114 62.9464 78.551 63.2005 78.1513 63.3725C77.7518 63.5448 77.3215 63.6314 76.8875 63.627C76.0228 63.6082 75.2005 63.2425 74.6004 62.6098C73.9993 61.9775 73.6693 61.129 73.6827 60.25C73.6537 59.815 73.7148 59.3785 73.8622 58.969C74.0095 58.5595 74.2395 58.1858 74.5373 57.8718C74.8351 57.5579 75.1942 57.3106 75.5915 57.1459C75.989 56.9814 76.4159 56.9031 76.8449 56.9161C77.2739 56.9027 77.7009 56.979 78.0996 57.1404C78.4982 57.3017 78.8599 57.5447 79.1623 57.8541C79.4648 58.1633 79.7013 58.5326 79.8569 58.9389C80.0126 59.3452 80.0846 59.7795 80.0684 60.2152L80.0693 60.2162ZM80.8541 60.2721C80.8467 59.4739 80.6064 58.6959 80.1636 58.0365C79.7217 57.3768 79.0972 56.8649 78.369 56.5657C77.6406 56.2662 76.8411 56.1925 76.0715 56.354C75.3023 56.5153 74.5974 56.9045 74.0457 57.4725C73.6331 57.8972 73.3182 58.4093 73.1236 58.9722C72.9289 59.5352 72.8593 60.1349 72.9198 60.7284C72.9803 61.3219 73.1693 61.8944 73.4733 62.4049C73.7773 62.9153 74.1888 63.3511 74.6782 63.6809C75.3331 64.1219 76.1018 64.356 76.8875 64.3538C77.4138 64.3574 77.9355 64.2538 78.4218 64.0493C78.9081 63.8447 79.3491 63.5433 79.7189 63.1628C80.0885 62.7821 80.3792 62.3302 80.5741 61.8335C80.7689 61.3368 80.8638 60.8055 80.8531 60.2709L80.8541 60.2721ZM72.3266 57.0067V56.3157H68.2739V57.0067H69.9328V64.2158H70.6751V57.0014L72.3266 57.0067ZM64.9354 64.3476C65.2067 64.3518 65.4759 64.2998 65.7268 64.1948C65.9777 64.0899 66.2049 63.9341 66.3946 63.7371C66.5842 63.5399 66.7322 63.3055 66.8296 63.0482C66.9271 62.791 66.9719 62.5162 66.9613 62.2408C66.9613 61.1876 66.3246 60.5197 65.2858 59.8918C64.416 59.3736 63.8219 59.0586 63.8219 58.1169C63.8016 57.8799 63.8544 57.6424 63.973 57.4372C64.0916 57.2321 64.2702 57.0696 64.4838 56.9723C64.6256 56.9075 64.779 56.8734 64.9344 56.8719C65.4575 56.8831 65.9557 57.1007 66.3237 57.4785L66.7788 56.9267C66.5346 56.6823 66.2446 56.4902 65.926 56.3617C65.6074 56.2332 65.2667 56.171 64.924 56.1787C64.6727 56.1731 64.4229 56.2205 64.1905 56.3179C63.9581 56.4153 63.7481 56.5606 63.5737 56.7445C63.3993 56.9285 63.2644 57.1472 63.1773 57.3869C63.0903 57.6265 63.0531 57.8819 63.0681 58.1368C63.0681 59.2757 63.7992 59.8812 64.8484 60.5091C65.7608 61.0506 66.1961 61.4403 66.1961 62.2734C66.2244 62.5375 66.1679 62.8039 66.0348 63.0326C65.9017 63.2613 65.6994 63.44 65.4579 63.5421C65.2979 63.6101 65.1254 63.6423 64.9521 63.6365C64.6611 63.6409 64.3722 63.5857 64.1027 63.4742C63.8332 63.3628 63.5885 63.1973 63.3833 62.9877L62.9376 63.528C63.1982 63.7947 63.5099 64.0045 63.8533 64.1443C64.1967 64.2842 64.5646 64.3512 64.9344 64.3412L64.9354 64.3476ZM58.7396 57.864L60.3829 62.0512H57.0848L58.7396 57.864ZM55.4084 64.2106H56.213L56.8081 62.7285H60.6649L61.2682 64.2106H62.075L58.7385 56.0923L55.4084 64.2106ZM52.0378 56.8813V56.1893H47.8907V64.0895H48.6237V60.6481H51.2436V59.9539H48.6206V56.8813H52.0378ZM45.0539 58.3875C45.0644 58.623 45.025 58.8581 44.9385 59.0768C44.852 59.2956 44.7203 59.493 44.5524 59.6556C44.3845 59.8183 44.1843 59.9427 43.9652 60.0204C43.746 60.0979 43.5132 60.127 43.2821 60.1057H41.9767C42.1043 60.2341 45.3287 64.0453 45.3589 64.0883H46.2827C46.1135 63.8936 43.3029 60.6123 43.3029 60.6123H43.7062C44.2705 60.6037 44.8092 60.3714 45.2074 59.9651C45.6056 59.5588 45.8318 59.0105 45.8377 58.4371C45.8406 58.131 45.7814 57.8275 45.6638 57.5457C45.5461 57.2639 45.3725 57.0097 45.1539 56.799C44.9354 56.5883 44.6764 56.4255 44.3932 56.3209C44.1102 56.216 43.8088 56.1715 43.5081 56.1903H41.0646V64.0905H41.7974V56.8835H43.3142C43.526 56.8642 43.7395 56.888 43.9421 56.9535C44.1447 57.019 44.3325 57.1249 44.4944 57.265C44.6563 57.405 44.7892 57.5764 44.8852 57.7691C44.9813 57.9618 45.0387 58.1721 45.0539 58.3875ZM38.6353 60.0961C38.6769 60.7593 38.5146 61.4193 38.1708 61.9846C37.827 62.55 37.3187 62.9928 36.7163 63.2518C36.3167 63.424 35.8864 63.5105 35.4523 63.5059C34.5877 63.4872 33.7655 63.1215 33.1656 62.4886C32.5656 61.8558 32.2367 61.0073 32.2508 60.1288C32.222 59.6939 32.2831 59.2577 32.4301 58.8483C32.5772 58.4388 32.8069 58.0651 33.1046 57.7513C33.4024 57.4375 33.7615 57.1904 34.1589 57.0261C34.5562 56.8617 34.9831 56.7837 35.4119 56.797C35.8408 56.7835 36.2679 56.8598 36.6666 57.0211C37.0653 57.1825 37.427 57.4254 37.7293 57.7348C38.0317 58.0442 38.2681 58.4135 38.424 58.8198C38.5798 59.226 38.6518 59.6604 38.6353 60.0961ZM39.4201 60.1531C39.4129 59.3551 39.1733 58.5772 38.7314 57.9174C38.2895 57.2577 37.6652 56.7458 36.9372 56.4462C36.2093 56.1465 35.4104 56.0725 34.6412 56.2334C33.8719 56.3944 33.1668 56.783 32.6146 57.3504C32.0623 57.9179 31.6878 58.6388 31.5383 59.4223C31.3888 60.2057 31.471 61.0166 31.7745 61.7526C32.0781 62.4887 32.5893 63.1169 33.2439 63.5581C33.8984 63.9993 34.6668 64.2337 35.4523 64.2317C35.9785 64.2359 36.5001 64.1329 36.9865 63.9287C37.4728 63.7245 37.9139 63.4234 38.2837 63.0431C38.6537 62.663 38.945 62.2114 39.1403 61.715C39.3357 61.2187 39.4311 60.6875 39.4211 60.1531H39.4201ZM26.253 56.8614C26.8954 56.8273 27.5322 56.9987 28.0738 57.3513C28.6153 57.704 29.0345 58.2202 29.2724 58.8274C29.43 59.2306 29.5033 59.6626 29.4878 60.0961C29.5064 60.5428 29.4327 60.9885 29.2714 61.4044C29.0279 62.0309 28.5958 62.5632 28.0368 62.9253C27.4777 63.2874 26.8204 63.4608 26.1586 63.4207H24.9445V56.8614H26.253ZM26.1493 64.0915C26.6848 64.1312 27.2225 64.0562 27.7277 63.8715C28.2328 63.6869 28.6943 63.3966 29.0821 63.0194C29.4699 62.6421 29.7755 62.1863 29.9789 61.6815C30.1824 61.1766 30.2792 60.634 30.2632 60.0887C30.2777 59.5521 30.1804 59.0185 29.9775 58.5228C29.7747 58.0271 29.4709 57.5806 29.0862 57.2126C28.7015 56.8447 28.2446 56.5635 27.7454 56.3875C27.2462 56.2115 26.7161 56.1446 26.1897 56.1913H24.2197V64.0915H26.1493ZM22.785 64.0915V63.3995H19.6518V56.1903H18.9187V64.0905L22.785 64.0915ZM14.2355 57.7388L15.8789 61.9248H12.5767L14.2355 57.7388ZM10.9013 64.0915H11.7079L12.301 62.6084H16.1516L16.7549 64.0915H17.5616L14.2304 55.9744L10.9013 64.0915ZM4.1164 64.3022L6.15362 59.2818L8.18791 64.3022L11.3065 56.1861H10.5021L8.154 62.4473L6.14265 57.5438L4.17285 62.4684L1.8036 56.1903H1L4.1164 64.3022ZM45.3785 44.5338L45.053 45.2268L36.996 27.4345H37.6181L45.3785 44.5338ZM44.718 27.4345H45.3401L53.0984 44.5338L52.7718 45.2268L44.718 27.4345ZM53.2456 29.1821L53.5701 28.4796L62.193 47.5254H61.5711L53.2456 29.1821ZM38.9505 27.0996H34.427V27.4345H35.2326L44.6404 47.8014L48.5406 39.5249L52.3612 47.8014L56.2481 39.5512L59.8084 47.5244H59.1409V47.8571H63.6632V47.5244H62.8576L53.4457 27.1428L49.9859 34.628L50.354 35.4349L52.4173 30.9727L54.95 36.6483H50.9067L51.1803 37.2476H55.2238L55.4768 37.8144H51.4343L51.705 38.4074H55.7369L55.8594 38.6792L53.3794 43.9459L46.011 27.4345H46.7491V27.0996H42.2257V27.4345H43.0302L48.1321 38.6844L45.6553 43.9407L38.289 27.4345H38.9515L38.9505 27.0996ZM57.7161 34.809L61.1314 27.4355H59.1409V27.0996H63.6612V27.4345H61.8633L58.0874 35.6169L57.7161 34.809ZM29.4214 72.3225V68.3566H29.048V70.1211H26.9663V68.3566H26.5992V72.3225H26.9663V70.476H29.048V72.3225H29.4214ZM33.9437 70.3169C33.9521 70.098 33.916 69.8797 33.8377 69.6756C33.7594 69.4715 33.6406 69.286 33.4887 69.1306C33.3368 68.9751 33.155 68.8532 32.9547 68.7722C32.7544 68.6913 32.5398 68.6531 32.3243 68.6601C32 68.6498 31.6807 68.7438 31.412 68.9285C31.1432 69.1133 30.9387 69.3795 30.8275 69.6892C30.7535 69.8946 30.7227 70.1135 30.7369 70.3318C30.73 70.773 30.8953 71.199 31.1966 71.5167C31.4979 71.8345 31.9107 72.0182 32.3449 72.0276C32.5628 72.0301 32.7789 71.9869 32.9796 71.9006C33.1803 71.8144 33.3614 71.687 33.5114 71.5264C33.6615 71.3659 33.7773 71.1756 33.8517 70.9674C33.9261 70.7593 33.9574 70.5378 33.9437 70.3169ZM34.3376 70.3434C34.343 70.6137 34.2952 70.8825 34.1968 71.1338C34.0985 71.3851 33.9517 71.6139 33.7651 71.8068C33.5785 71.9996 33.3559 72.1526 33.1104 72.2568C32.8648 72.361 32.6012 72.4144 32.3351 72.4137C32.069 72.413 31.8056 72.3582 31.5606 72.2527C31.3155 72.1472 31.0937 71.993 30.908 71.7992C30.7225 71.6053 30.577 71.3757 30.4799 71.1239C30.3829 70.8721 30.3363 70.6031 30.343 70.3328C30.3377 70.0624 30.3856 69.7937 30.484 69.5424C30.5823 69.2911 30.7291 69.0623 30.9156 68.8695C31.1022 68.6766 31.3248 68.5235 31.5703 68.4192C31.8159 68.315 32.0795 68.2616 32.3457 68.2622C32.7467 68.2631 33.138 68.3867 33.4689 68.6167C33.7998 68.8468 34.0548 69.1728 34.2008 69.5522C34.2979 69.8039 34.3445 70.0729 34.3376 70.3434ZM36.739 68.7033V68.3566H34.7059V68.7033H35.5354V72.3225H35.9076V68.7033H36.739ZM39.6524 72.3225V71.9761H37.8629V70.5887H39.4968V70.2422H37.8629V68.7033H39.5497V68.3566H37.4938V72.3225H39.6524ZM42.544 72.3225V71.9761H40.9691V68.3566H40.601V72.3225H42.544ZM44.0567 72.3889C44.1931 72.3911 44.3285 72.365 44.4546 72.3122C44.5807 72.2594 44.6949 72.181 44.7901 72.0818C44.8854 71.9826 44.9597 71.8647 45.0084 71.7353C45.0572 71.6059 45.0794 71.4677 45.0737 71.3293C45.0737 70.8026 44.7545 70.4654 44.2319 70.1494C43.7944 69.8925 43.502 69.7302 43.502 69.2605C43.4962 69.1818 43.5063 69.1028 43.5316 69.0283C43.557 68.9538 43.5971 68.8853 43.6494 68.8271C43.702 68.7692 43.7658 68.7227 43.8367 68.6907C43.9077 68.6588 43.9844 68.6419 44.062 68.6412C44.3243 68.6465 44.5743 68.7557 44.7586 68.9454L44.9889 68.6694C44.8659 68.5467 44.7199 68.4502 44.5597 68.3856C44.3994 68.3211 44.2281 68.2897 44.0557 68.2935C43.9294 68.2906 43.8038 68.3144 43.687 68.3633C43.5702 68.4123 43.4646 68.4852 43.3769 68.5777C43.2893 68.6701 43.2214 68.78 43.1776 68.9005C43.1338 69.0209 43.1151 69.1492 43.1226 69.2774C43.1226 69.8483 43.4906 70.1526 44.0185 70.4676C44.4755 70.7382 44.6943 70.9354 44.6943 71.3536C44.7037 71.4413 44.6945 71.5301 44.6673 71.6139C44.6401 71.6977 44.5955 71.7746 44.5365 71.8394C44.4775 71.9043 44.4056 71.9555 44.3256 71.9898C44.2455 72.0241 44.1592 72.0406 44.0724 72.0382C43.9261 72.04 43.781 72.0122 43.6455 71.9563C43.51 71.9004 43.3868 71.8175 43.2833 71.7126L43.0604 71.9824C43.1912 72.1163 43.3474 72.2215 43.5197 72.2918C43.6919 72.3621 43.8764 72.3959 44.062 72.391M48.0804 70.3949C47.9138 70.4901 47.7716 70.6238 47.6653 70.7852C47.559 70.9466 47.4917 71.1311 47.4687 71.3239C47.4663 71.4191 47.4827 71.5138 47.517 71.6024C47.5513 71.691 47.6027 71.7718 47.6682 71.8398C47.7338 71.9079 47.8121 71.9619 47.8985 71.9987C47.985 72.0355 48.0778 72.0542 48.1715 72.0539C48.5367 72.0451 48.8859 71.9 49.1525 71.6463L48.0804 70.3949ZM48.1976 68.6179C48.13 68.6161 48.0627 68.6281 47.9998 68.6532C47.9368 68.6783 47.8794 68.716 47.8311 68.764C47.7826 68.812 47.7441 68.8694 47.718 68.9328C47.6919 68.9962 47.6787 69.0643 47.6792 69.133C47.6817 69.2408 47.7057 69.3469 47.7497 69.4451C47.7937 69.5432 47.8568 69.6312 47.9351 69.7039L48.1425 69.9441C48.3842 69.7692 48.7056 69.4911 48.7056 69.1551C48.7113 69.0849 48.7022 69.0142 48.679 68.9478C48.6559 68.8814 48.6191 68.8207 48.5712 68.7698C48.523 68.7191 48.4648 68.6792 48.4004 68.6529C48.336 68.6268 48.2669 68.6149 48.1976 68.6179ZM49.7185 72.3235L49.3524 71.9024C49.0289 72.2053 48.6084 72.3789 48.1686 72.391C48.031 72.396 47.8939 72.3732 47.7651 72.3238C47.6363 72.2745 47.5185 72.1996 47.4185 72.1035C47.3185 72.0075 47.2383 71.8921 47.1826 71.7643C47.127 71.6364 47.0969 71.4985 47.0943 71.3587C47.1168 71.1076 47.1986 70.8657 47.333 70.6537C47.4673 70.4417 47.6501 70.2658 47.8658 70.141L47.6313 69.8704C47.4424 69.6767 47.3289 69.4199 47.3121 69.1477C47.3198 68.917 47.4162 68.6985 47.5805 68.539C47.7448 68.3796 47.9641 68.2918 48.1913 68.2945C48.3038 68.2885 48.4164 68.3059 48.5221 68.3455C48.6278 68.3852 48.7244 68.4463 48.8061 68.5252C48.8878 68.604 48.9528 68.699 48.9972 68.8042C49.0416 68.9094 49.0644 69.0227 49.0643 69.1372C49.0329 69.3569 48.952 69.5663 48.828 69.749C48.7039 69.9317 48.5399 70.0828 48.3489 70.1906L49.4044 71.4019C49.5303 71.2742 49.6462 71.1365 49.7507 70.9901L50.0004 71.2281C49.882 71.3814 49.7543 71.5271 49.618 71.6642L50.1923 72.3267L49.7185 72.3235ZM54.2017 69.4596C54.2072 69.5779 54.1876 69.6961 54.1442 69.8061C54.1009 69.916 54.0348 70.0153 53.9504 70.097C53.8661 70.1789 53.7655 70.2415 53.6554 70.2805C53.5452 70.3195 53.4282 70.3341 53.312 70.3232H52.6558C52.7201 70.3896 54.3385 72.3004 54.3551 72.3247H54.8185L53.3214 70.5793H53.5288C53.8122 70.5751 54.0827 70.4585 54.2826 70.2543C54.4825 70.0502 54.596 69.7748 54.5988 69.4869C54.6007 69.3327 54.5713 69.1798 54.5123 69.0377C54.4533 68.8957 54.366 68.7676 54.2559 68.6615C54.146 68.5552 54.0157 68.4732 53.873 68.4206C53.7304 68.3679 53.5787 68.3458 53.4273 68.3556H52.1976V72.3247H52.5656V68.7043H53.3277C53.4342 68.6946 53.5415 68.7065 53.6434 68.7394C53.7453 68.7723 53.8397 68.8255 53.9212 68.8958C54.0026 68.9662 54.0694 69.0524 54.1176 69.1494C54.1658 69.2464 54.1943 69.3522 54.2017 69.4606M57.7361 72.3225V71.9761H55.9476V70.5887H57.5827V70.2422H55.9476V68.7033H57.6366V68.3566H55.5776V72.3225H57.7361ZM59.43 72.3889C59.5664 72.3913 59.7019 72.3653 59.8282 72.3126C59.9544 72.2599 60.0687 72.1815 60.1641 72.0823C60.2594 71.9831 60.3338 71.8651 60.3826 71.7356C60.4314 71.6061 60.4537 71.4678 60.448 71.3293C60.448 70.8026 60.1287 70.4654 59.6052 70.1494C59.1687 69.8883 58.8702 69.7282 58.8702 69.2573C58.8645 69.1787 58.8748 69.0998 58.9002 69.0254C58.9257 68.9511 58.9659 68.8828 59.0184 68.8247C59.0708 68.7667 59.1344 68.7202 59.2051 68.6881C59.2759 68.656 59.3524 68.6389 59.43 68.638C59.6934 68.6428 59.9445 68.752 60.1299 68.9422L60.3578 68.6662C60.235 68.5433 60.0891 68.4467 59.9289 68.3821C59.7686 68.3175 59.5972 68.2863 59.4249 68.2903C59.2985 68.2875 59.173 68.3112 59.0561 68.3602C58.9393 68.4091 58.8336 68.482 58.7459 68.5744C58.6583 68.6669 58.5905 68.7768 58.5467 68.8973C58.5029 69.0177 58.4842 69.146 58.4917 69.2742C58.4917 69.8451 58.8598 70.1494 59.3874 70.4644C59.8437 70.735 60.0613 70.9322 60.0613 71.3504C60.076 71.4828 60.0481 71.6164 59.9817 71.7313C59.9153 71.8462 59.814 71.936 59.693 71.9874C59.6128 72.0216 59.5263 72.0378 59.4394 72.035C59.2932 72.0371 59.1482 72.0093 59.0128 71.9534C58.8774 71.8975 58.7545 71.8145 58.6512 71.7094L58.4274 71.9792C58.558 72.1127 58.7139 72.2177 58.8857 72.288C59.0576 72.3582 59.2417 72.3922 59.4268 72.3879M64.6336 70.3169C64.6421 70.0981 64.6062 69.8799 64.5279 69.6759C64.4104 69.3682 64.2018 69.1052 63.9308 68.9232C63.6598 68.7412 63.3398 68.6493 63.0152 68.6601C62.8 68.6533 62.5858 68.6924 62.3864 68.7748C62.1869 68.8572 62.0067 68.9812 61.8573 69.1386C61.7078 69.2961 61.5925 69.4836 61.5188 69.6891C61.445 69.8946 61.4144 70.1136 61.429 70.3318C61.4216 70.7729 61.5866 71.1991 61.8878 71.5169C62.1889 71.8347 62.6018 72.0184 63.036 72.0276C63.2538 72.03 63.4697 71.9866 63.6702 71.9002C63.8708 71.8138 64.0517 71.6864 64.2016 71.5259C64.3516 71.3654 64.4674 71.1752 64.5418 70.9672C64.616 70.7591 64.6472 70.5378 64.6336 70.3169ZM65.0287 70.3434C65.0339 70.6137 64.9859 70.8824 64.8876 71.1337C64.7893 71.385 64.6426 71.6138 64.4562 71.8068C64.2225 72.0483 63.9331 72.2267 63.6143 72.3255C63.2955 72.4244 62.9574 72.4406 62.6308 72.3727C62.3042 72.3048 61.9996 72.155 61.7446 71.9369C61.4896 71.7188 61.2923 71.4393 61.1708 71.124C61.0738 70.8721 61.0272 70.6032 61.0338 70.3328C61.0286 70.0624 61.0765 69.7937 61.1748 69.5424C61.2732 69.2911 61.4199 69.0623 61.6065 68.8695C61.793 68.6766 62.0156 68.5235 62.2612 68.4192C62.5068 68.315 62.7704 68.2616 63.0366 68.2622C63.3027 68.2631 63.566 68.3179 63.8111 68.4234C64.0561 68.529 64.278 68.6832 64.4636 68.8769C64.6492 69.0708 64.7948 69.3003 64.8917 69.5522C64.9889 69.8039 65.0354 70.0729 65.0287 70.3434ZM67.9575 69.4596C67.9627 69.578 67.9428 69.6961 67.8993 69.806C67.8558 69.916 67.7897 70.0152 67.7053 70.097C67.6209 70.1788 67.5203 70.2413 67.4102 70.2803C67.3001 70.3193 67.183 70.334 67.0669 70.3232H66.4023C66.4677 70.3896 68.0851 72.3004 68.1006 72.3247H68.5641L67.0691 70.5793H67.2702C67.5535 70.5747 67.8239 70.458 68.0239 70.254C68.2239 70.05 68.3377 69.7748 68.3411 69.4869C68.3442 69.2546 68.2759 69.0271 68.1458 68.836C68.0158 68.6449 67.8303 68.4998 67.6153 68.4207C67.4728 68.368 67.321 68.3458 67.1696 68.3556H65.943V72.3247H66.3111V68.7043H67.0732C67.1796 68.6946 67.2869 68.7066 67.3888 68.7395C67.4906 68.7724 67.585 68.8256 67.6664 68.8961C67.7478 68.9665 67.8145 69.0527 67.8627 69.1496C67.9109 69.2465 67.9396 69.3523 67.9471 69.4606M70.8907 68.7033V68.3566H68.8595V68.7033H69.689V72.3225H70.0612V68.7033H70.8907ZM72.3867 72.3889C72.5232 72.391 72.6586 72.365 72.7848 72.3122C72.911 72.2594 73.0253 72.1811 73.1208 72.082C73.2159 71.9826 73.2904 71.8648 73.3397 71.7355C73.3883 71.6061 73.41 71.4677 73.405 71.3293C73.405 70.8026 73.0857 70.4654 72.5641 70.1494C72.1255 69.8883 71.827 69.7282 71.827 69.2573C71.8212 69.1787 71.8314 69.0998 71.8569 69.0254C71.8824 68.951 71.9226 68.8827 71.9751 68.8248C72.0275 68.7666 72.091 68.7201 72.1618 68.6879C72.2326 68.6558 72.3092 68.6388 72.3867 68.638C72.6494 68.6434 72.8997 68.7525 73.0845 68.9422L73.3136 68.6662C73.1909 68.5432 73.045 68.4465 72.8847 68.382C72.7245 68.3174 72.553 68.2862 72.3807 68.2903C72.2542 68.2873 72.1284 68.311 72.0114 68.3598C71.8948 68.409 71.7894 68.4819 71.7015 68.574C71.6136 68.6664 71.5458 68.7764 71.5024 68.897C71.4589 69.0176 71.4402 69.146 71.4475 69.2742C71.4475 69.8451 71.8134 70.1494 72.3422 70.4644C72.8005 70.735 73.0161 70.9322 73.0161 71.3504C73.0255 71.438 73.0161 71.527 72.9892 71.6108C72.9483 71.7373 72.8682 71.847 72.761 71.9234C72.6537 71.9998 72.525 72.039 72.394 72.035C72.2477 72.0368 72.1025 72.009 71.9669 71.9532C71.8316 71.897 71.7086 71.8142 71.6051 71.7094L71.3811 71.9792C71.5119 72.1129 71.6682 72.2181 71.8404 72.2884C72.0126 72.3586 72.1971 72.3925 72.3826 72.3879" fill="black"/>
</g>
<defs>
<clipPath id="clip0_2_17">
<rect width="98" height="46" fill="white" transform="translate(1 27)"/>
</clipPath>
</defs>
</svg>
